<?xml version="1.0" encoding="UTF-8"?>
<svg version="1.1" xmlns="http://www.w3.org/2000/svg" width="268" height="280">
<path d="M0 0 C2.26895842 2.30202156 3.18564283 4.11698077 4.14453125 7.17578125 C3.14550781 7.96082031 2.14648438 8.74585937 1.1171875 9.5546875 C-0.18698691 10.61491562 -1.49032917 11.67616793 -2.79296875 12.73828125 C-3.45232422 13.25197266 -4.11167969 13.76566406 -4.79101562 14.29492188 C-8.02837222 16.9678163 -9.65194555 18.57805863 -11.03125 22.62890625 C-10.81663249 26.95941074 -9.32855333 29.76973711 -7.10546875 33.36328125 C0.52787381 46.77115502 2.34635378 61.37896227 -0.98046875 76.48828125 C-3.11240618 83.87355731 -6.59932789 90.79156996 -10.85546875 97.17578125 C-10.85057724 100.71040712 -10.85057724 100.71040712 -9.85546875 104.17578125 C-7.89863995 105.99915878 -7.89863995 105.99915878 -5.85546875 107.17578125 C-5.85546875 107.83578125 -5.85546875 108.49578125 -5.85546875 109.17578125 C-5.31921875 109.40265625 -4.78296875 109.62953125 -4.23046875 109.86328125 C-1.07046012 111.60960181 1.41222955 113.81606615 4.14453125 116.17578125 C1.08263381 126.10055227 -11.19699463 132.41396793 -19.85327148 137.18676758 C-39.6416028 147.6055256 -63.59424001 149.01643169 -84.89404297 142.55761719 C-100.41530609 137.32162025 -114.83187893 128.3469272 -123.54296875 114.19140625 C-125.34035695 111.43113152 -127.43080999 109.39261212 -129.85546875 107.17578125 C-131.59344961 105.43780039 -131.0880964 103.03361603 -131.171875 100.6640625 C-131.2140918 99.5198584 -131.25630859 98.3756543 -131.29980469 97.19677734 C-131.33879883 95.97297363 -131.37779297 94.74916992 -131.41796875 93.48828125 C-131.45825195 92.25416504 -131.49853516 91.02004883 -131.54003906 89.74853516 C-131.61659023 87.31015534 -131.69007208 84.87167692 -131.76025391 82.43310547 C-131.83673282 79.81674231 -131.92733158 77.2016101 -132.0234375 74.5859375 C-132.18240227 67.73531278 -131.48433815 62.5288823 -128.85546875 56.17578125 C-129.51546875 56.17578125 -130.17546875 56.17578125 -130.85546875 56.17578125 C-130.97913466 50.69490793 -131.06983818 45.21484768 -131.13012695 39.73291016 C-131.15526022 37.86850844 -131.18937258 36.00420515 -131.23266602 34.14013672 C-131.29337227 31.45906294 -131.32168933 28.77929223 -131.34375 26.09765625 C-131.36955643 25.265224 -131.39536285 24.43279175 -131.42195129 23.57513428 C-131.42303646 21.33240433 -131.37196924 19.35871762 -130.85546875 17.17578125 C-128.42651367 14.76831055 -128.42651367 14.76831055 -125.85546875 13.17578125 C-124.19161799 10.80020887 -124.19161799 10.80020887 -122.85546875 8.23828125 C-120.54488769 4.2414428 -118.38193861 1.22136886 -114.85546875 -1.82421875 C-114.20449219 -2.41589844 -113.55351563 -3.00757812 -112.8828125 -3.6171875 C-79.17779414 -32.70816328 -32.79389197 -26.26392227 0 0 Z M-56.85546875 -11.82421875 C-56.85546875 -10.50421875 -56.85546875 -9.18421875 -56.85546875 -7.82421875 C-55.86546875 -7.82421875 -54.87546875 -7.82421875 -53.85546875 -7.82421875 C-53.85546875 -9.14421875 -53.85546875 -10.46421875 -53.85546875 -11.82421875 C-54.84546875 -11.82421875 -55.83546875 -11.82421875 -56.85546875 -11.82421875 Z M-92.85546875 -3.82421875 C-93.18546875 -2.50421875 -93.51546875 -1.18421875 -93.85546875 0.17578125 C-92.53546875 0.17578125 -91.21546875 0.17578125 -89.85546875 0.17578125 C-89.85546875 -1.14421875 -89.85546875 -2.46421875 -89.85546875 -3.82421875 C-90.84546875 -3.82421875 -91.83546875 -3.82421875 -92.85546875 -3.82421875 Z M-66.85546875 -2.82421875 C-66.52546875 -1.17421875 -66.19546875 0.47578125 -65.85546875 2.17578125 C-64.86546875 1.18578125 -63.87546875 0.19578125 -62.85546875 -0.82421875 C-63.18546875 -1.48421875 -63.51546875 -2.14421875 -63.85546875 -2.82421875 C-64.84546875 -2.82421875 -65.83546875 -2.82421875 -66.85546875 -2.82421875 Z M-21.85546875 -0.82421875 C-21.52546875 0.82578125 -21.19546875 2.47578125 -20.85546875 4.17578125 C-20.19546875 3.84578125 -19.53546875 3.51578125 -18.85546875 3.17578125 C-18.85546875 1.85578125 -18.85546875 0.53578125 -18.85546875 -0.82421875 C-19.84546875 -0.82421875 -20.83546875 -0.82421875 -21.85546875 -0.82421875 Z M-34.85546875 2.17578125 C-34.52546875 3.82578125 -34.19546875 5.47578125 -33.85546875 7.17578125 C-33.52546875 6.51578125 -33.19546875 5.85578125 -32.85546875 5.17578125 C-32.19546875 4.84578125 -31.53546875 4.51578125 -30.85546875 4.17578125 C-31.18546875 3.51578125 -31.51546875 2.85578125 -31.85546875 2.17578125 C-32.84546875 2.17578125 -33.83546875 2.17578125 -34.85546875 2.17578125 Z M-95.85546875 8.17578125 C-96.51546875 9.49578125 -97.17546875 10.81578125 -97.85546875 12.17578125 C-96.53546875 12.50578125 -95.21546875 12.83578125 -93.85546875 13.17578125 C-94.18546875 11.52578125 -94.51546875 9.87578125 -94.85546875 8.17578125 C-95.18546875 8.17578125 -95.51546875 8.17578125 -95.85546875 8.17578125 Z M-96.85546875 28.17578125 C-106.2774943 40.62031797 -110.3057985 53.63102352 -108.85546875 69.17578125 C-106.05117381 83.04484863 -99.17604702 95.3212391 -87.41796875 103.48828125 C-75.35072635 110.97328899 -63.04772089 114.04358865 -48.859375 111.67578125 C-35.02885081 108.22305464 -23.6468163 100.69174126 -16.09765625 88.4296875 C-9.47069249 76.40529099 -6.78238349 64.33950196 -9.578125 50.6328125 C-14.12512803 34.93000445 -22.49888827 24.11081896 -36.85546875 16.17578125 C-57.1876931 5.83131623 -81.68958703 11.57645135 -96.85546875 28.17578125 Z M-120.85546875 21.17578125 C-120.85546875 22.49578125 -120.85546875 23.81578125 -120.85546875 25.17578125 C-119.53546875 24.84578125 -118.21546875 24.51578125 -116.85546875 24.17578125 C-117.18546875 23.18578125 -117.51546875 22.19578125 -117.85546875 21.17578125 C-118.84546875 21.17578125 -119.83546875 21.17578125 -120.85546875 21.17578125 Z M-117.85546875 34.17578125 C-117.85546875 35.49578125 -117.85546875 36.81578125 -117.85546875 38.17578125 C-116.53546875 37.84578125 -115.21546875 37.51578125 -113.85546875 37.17578125 C-114.18546875 36.18578125 -114.51546875 35.19578125 -114.85546875 34.17578125 C-115.84546875 34.17578125 -116.83546875 34.17578125 -117.85546875 34.17578125 Z M-122.85546875 66.17578125 C-122.85546875 67.49578125 -122.85546875 68.81578125 -122.85546875 70.17578125 C-121.86546875 70.17578125 -120.87546875 70.17578125 -119.85546875 70.17578125 C-119.52546875 69.18578125 -119.19546875 68.19578125 -118.85546875 67.17578125 C-120.17546875 66.84578125 -121.49546875 66.51578125 -122.85546875 66.17578125 Z M-123.85546875 92.17578125 C-124.18546875 93.16578125 -124.51546875 94.15578125 -124.85546875 95.17578125 C-124.52546875 95.83578125 -124.19546875 96.49578125 -123.85546875 97.17578125 C-122.86546875 97.17578125 -121.87546875 97.17578125 -120.85546875 97.17578125 C-120.85546875 95.52578125 -120.85546875 93.87578125 -120.85546875 92.17578125 C-121.84546875 92.17578125 -122.83546875 92.17578125 -123.85546875 92.17578125 Z M-110.85546875 96.17578125 C-111.18546875 97.49578125 -111.51546875 98.81578125 -111.85546875 100.17578125 C-110.53546875 100.17578125 -109.21546875 100.17578125 -107.85546875 100.17578125 C-108.18546875 98.85578125 -108.51546875 97.53578125 -108.85546875 96.17578125 C-109.51546875 96.17578125 -110.17546875 96.17578125 -110.85546875 96.17578125 Z M-22.85546875 110.17578125 C-23.18546875 111.49578125 -23.51546875 112.81578125 -23.85546875 114.17578125 C-22.53546875 114.17578125 -21.21546875 114.17578125 -19.85546875 114.17578125 C-20.18546875 112.85578125 -20.51546875 111.53578125 -20.85546875 110.17578125 C-21.51546875 110.17578125 -22.17546875 110.17578125 -22.85546875 110.17578125 Z M-84.85546875 116.17578125 C-85.51546875 117.49578125 -86.17546875 118.81578125 -86.85546875 120.17578125 C-85.53546875 120.50578125 -84.21546875 120.83578125 -82.85546875 121.17578125 C-83.18546875 119.52578125 -83.51546875 117.87578125 -83.85546875 116.17578125 C-84.18546875 116.17578125 -84.51546875 116.17578125 -84.85546875 116.17578125 Z M-97.85546875 119.17578125 C-98.51546875 120.49578125 -99.17546875 121.81578125 -99.85546875 123.17578125 C-98.53546875 123.50578125 -97.21546875 123.83578125 -95.85546875 124.17578125 C-95.52546875 123.18578125 -95.19546875 122.19578125 -94.85546875 121.17578125 C-95.84546875 120.51578125 -96.83546875 119.85578125 -97.85546875 119.17578125 Z M-52.85546875 121.17578125 C-53.84546875 122.66078125 -53.84546875 122.66078125 -54.85546875 124.17578125 C-54.52546875 124.83578125 -54.19546875 125.49578125 -53.85546875 126.17578125 C-52.86546875 126.17578125 -51.87546875 126.17578125 -50.85546875 126.17578125 C-51.18546875 124.52578125 -51.51546875 122.87578125 -51.85546875 121.17578125 C-52.18546875 121.17578125 -52.51546875 121.17578125 -52.85546875 121.17578125 Z M-26.85546875 123.17578125 C-27.18546875 124.49578125 -27.51546875 125.81578125 -27.85546875 127.17578125 C-26.53546875 127.17578125 -25.21546875 127.17578125 -23.85546875 127.17578125 C-23.85546875 125.85578125 -23.85546875 124.53578125 -23.85546875 123.17578125 C-24.84546875 123.17578125 -25.83546875 123.17578125 -26.85546875 123.17578125 Z M-63.85546875 131.17578125 C-63.52546875 132.82578125 -63.19546875 134.47578125 -62.85546875 136.17578125 C-61.86546875 135.51578125 -60.87546875 134.85578125 -59.85546875 134.17578125 C-60.18546875 133.18578125 -60.51546875 132.19578125 -60.85546875 131.17578125 C-61.84546875 131.17578125 -62.83546875 131.17578125 -63.85546875 131.17578125 Z " fill="#404042" transform="translate(199.85546875,72.82421875)"/>
<path d="M0 0 C-0.0220752 0.66531738 -0.04415039 1.33063477 -0.06689453 2.01611328 C-0.92114372 14.5900505 -0.92114372 14.5900505 3.1171875 25.93359375 C5.87305552 27.63863376 7.77770128 28.62342959 11 29 C13.49415607 28.39852228 13.49415607 28.39852228 16 27 C16.90939331 26.69509644 16.90939331 26.69509644 17.8371582 26.3840332 C20.04251928 25.49273137 21.37478338 24.75099378 23 23 C24.02800093 19.09128636 23.97895158 15.27324198 23.9375 11.25 C23.95361328 10.17105469 23.96972656 9.09210937 23.98632812 7.98046875 C24.02165701 5.31902607 24.02506609 2.66144739 24 0 C29.37004075 -0.16698438 31.18515514 1.19052207 35.06640625 4.79296875 C41.2496335 11.85059177 43.37081461 19.88533722 43.28515625 29.05078125 C42.51211885 37.04589412 38.46438991 45.09958054 32.3125 50.25 C31.549375 50.8275 30.78625 51.405 30 52 C28.39134099 55.21731801 28.80761274 58.73328126 28.77539062 62.27001953 C28.76400055 63.12552902 28.75261047 63.98103851 28.74087524 64.86247253 C28.63016332 73.81996882 28.58278007 82.7782917 28.54003906 91.73632812 C28.51777668 95.98511213 28.47602881 100.23301601 28.41699219 104.48144531 C28.34582778 109.61263678 28.30919536 114.74300087 28.29692078 119.87466049 C28.28653177 121.82749366 28.26413501 123.78030241 28.22932434 125.73285294 C27.51426215 137.65761139 27.51426215 137.65761139 32.36914062 148.00732422 C33.56969627 149.01657275 34.77955863 150.01489122 36 151 C41.68644318 158.63279544 44.108976 166.47666859 43 176 C40.94106063 184.50482343 37.21043089 190.04474674 30.9375 195.9375 C28.5026874 197.27271981 26.73828057 197.07643805 24 197 C24.0220752 196.33468262 24.04415039 195.66936523 24.06689453 194.98388672 C24.92114372 182.4099495 24.92114372 182.4099495 20.8828125 171.06640625 C18.12694448 169.36136624 16.22229872 168.37657041 13 168 C10.50584393 168.60147772 10.50584393 168.60147772 8 170 C7.39373779 170.20326904 6.78747559 170.40653809 6.1628418 170.6159668 C3.95748072 171.50726863 2.62521662 172.24900622 1 174 C-0.02800093 177.90871364 0.02104842 181.72675802 0.0625 185.75 C0.04638672 186.82894531 0.03027344 187.90789062 0.01367188 189.01953125 C-0.02165701 191.68097393 -0.02506609 194.33855261 0 197 C-5.36935909 197.16696318 -7.18258076 195.80843181 -11.06640625 192.2109375 C-17.13861652 185.26776374 -19.39641183 177.29690883 -19.265625 168.26171875 C-18.50058383 158.86746321 -14.88412257 153.07031535 -7.92578125 146.875 C-5.11704633 144.14032909 -5.00918399 142.24978508 -4.86628723 138.36329651 C-4.85728152 136.82107658 -4.85385877 135.27881824 -4.85473633 133.73657227 C-4.85137772 132.89399872 -4.8480191 132.05142517 -4.84455872 131.18331909 C-4.83504935 128.3943332 -4.83310567 125.60540735 -4.83203125 122.81640625 C-4.82881887 120.87971471 -4.82545481 118.94302342 -4.82194519 117.0063324 C-4.8159541 112.94521522 -4.81410529 108.88411933 -4.81469727 104.82299805 C-4.81479893 99.61636361 -4.80114179 94.40986541 -4.78392506 89.20326328 C-4.77281328 85.2030118 -4.7707778 81.20279334 -4.77130699 77.202528 C-4.77012582 75.28277046 -4.76569641 73.3630121 -4.75797462 71.44326973 C-4.74819056 68.75968978 -4.75104642 66.07640688 -4.75708008 63.39282227 C-4.74865082 62.20119225 -4.74865082 62.20119225 -4.74005127 60.98548889 C-4.75845779 55.67473223 -4.75845779 55.67473223 -7 51 C-7.763125 50.4225 -8.52625 49.845 -9.3125 49.25 C-15.13639628 44.37417986 -18.51362077 37.45659107 -19.3359375 29.921875 C-19.47035939 19.00681755 -17.11057768 11.7226407 -9.78125 3.59375 C-6.44731419 0.61075481 -4.53711738 0 0 0 Z M10 63 C8.58773428 65.82453144 8.87273556 68.18702513 8.87060547 71.34570312 C8.86885315 71.99627182 8.86710083 72.64684052 8.86529541 73.31712341 C8.86088702 75.47185925 8.86381132 77.6265133 8.8671875 79.78125 C8.86651417 81.275757 8.8655439 82.77026389 8.86428833 84.26477051 C8.86281273 87.39869224 8.8649615 90.53258548 8.86962891 93.66650391 C8.87532612 97.68843096 8.87204638 101.71029128 8.86605644 105.73221588 C8.86244712 108.81879176 8.86359113 111.90535175 8.86618423 114.9919281 C8.86685247 116.47513334 8.86602866 117.95834001 8.86370468 119.44154358 C8.86117209 121.51250034 8.86502733 123.58334824 8.87060547 125.65429688 C8.87140106 126.83407104 8.87219666 128.01384521 8.87301636 129.22937012 C8.81033534 131.95883251 8.81033534 131.95883251 10 134 C11.32 134 12.64 134 14 134 C14 110.57 14 87.14 14 63 C12.68 63 11.36 63 10 63 Z " fill="#404042" transform="translate(37,36)"/>
<path d="M0 0 C10.55183849 9.70705384 16.09128128 22.31431325 16.7109375 36.56640625 C16.4237296 49.8286536 11.54055752 59.87882213 2.8984375 69.62890625 C-8.26028043 79.42680492 -19.54261323 84.44886455 -34.5546875 84.125 C-46.96777554 83.1425571 -59.43661007 78.04991208 -67.7265625 68.50390625 C-76.32893662 56.8490768 -80.68967939 45.42747171 -79.6640625 30.87890625 C-77.58536506 17.38498896 -71.41995265 6.36811888 -60.6640625 -2.12109375 C-41.37753814 -14.54806488 -18.27065771 -14.54687263 0 0 Z M-32.6640625 -0.12109375 C-33.3240625 0.53890625 -33.9840625 1.19890625 -34.6640625 1.87890625 C-34.34364853 4.48171193 -34.34364853 4.48171193 -33.6640625 6.87890625 C-32.3440625 6.54890625 -31.0240625 6.21890625 -29.6640625 5.87890625 C-29.3340625 4.55890625 -29.0040625 3.23890625 -28.6640625 1.87890625 C-29.9840625 1.21890625 -31.3040625 0.55890625 -32.6640625 -0.12109375 Z M-61.6640625 16.87890625 C-62.96039871 17.9453574 -62.96039871 17.9453574 -62.7265625 20.44140625 C-62.7059375 21.24578125 -62.6853125 22.05015625 -62.6640625 22.87890625 C-61.6740625 23.20890625 -60.6840625 23.53890625 -59.6640625 23.87890625 C-59.0040625 23.21890625 -58.3440625 22.55890625 -57.6640625 21.87890625 C-57.98447647 19.27610057 -57.98447647 19.27610057 -58.6640625 16.87890625 C-59.6540625 16.87890625 -60.6440625 16.87890625 -61.6640625 16.87890625 Z M-48.53515625 26.09765625 C-51.5024757 30.77965511 -51.10581203 36.53543598 -50.6640625 41.87890625 C-48.8336834 47.71323964 -44.49063819 51.34655347 -39.6640625 54.87890625 C-34.25772858 56.68101756 -28.70830126 56.61174656 -23.3515625 54.69140625 C-18.30077822 51.28506336 -14.73893799 47.66671682 -12.6640625 41.87890625 C-11.8205855 34.90000068 -12.52327192 28.89059451 -16.98828125 23.1875 C-21.30094801 18.48997584 -25.17538212 17.11974629 -31.5390625 16.50390625 C-38.95739309 16.74457728 -43.92961808 20.5760301 -48.53515625 26.09765625 Z M-4.6640625 16.87890625 C-4.9940625 18.52890625 -5.3240625 20.17890625 -5.6640625 21.87890625 C-3.1890625 22.37390625 -3.1890625 22.37390625 -0.6640625 22.87890625 C0.34704843 19.82977397 0.34704843 19.82977397 -0.6640625 16.87890625 C-1.9840625 16.87890625 -3.3040625 16.87890625 -4.6640625 16.87890625 Z M-61.6640625 49.87890625 C-62.96039871 50.9453574 -62.96039871 50.9453574 -62.7265625 53.44140625 C-62.7059375 54.24578125 -62.6853125 55.05015625 -62.6640625 55.87890625 C-61.0140625 55.54890625 -59.3640625 55.21890625 -57.6640625 54.87890625 C-57.9940625 53.22890625 -58.3240625 51.57890625 -58.6640625 49.87890625 C-59.6540625 49.87890625 -60.6440625 49.87890625 -61.6640625 49.87890625 Z M-4.6640625 49.87890625 C-4.9940625 51.52890625 -5.3240625 53.17890625 -5.6640625 54.87890625 C-4.1790625 55.86890625 -4.1790625 55.86890625 -2.6640625 56.87890625 C-1.01850551 55.65081534 -1.01850551 55.65081534 0.3359375 53.87890625 C0.10836019 51.71591414 0.10836019 51.71591414 -0.6640625 49.87890625 C-1.9840625 49.87890625 -3.3040625 49.87890625 -4.6640625 49.87890625 Z M-32.6640625 65.87890625 C-33.3240625 66.53890625 -33.9840625 67.19890625 -34.6640625 67.87890625 C-34.3455448 69.98711422 -34.3455448 69.98711422 -33.6640625 71.87890625 C-31.6840625 72.37390625 -31.6840625 72.37390625 -29.6640625 72.87890625 C-29.3340625 71.22890625 -29.0040625 69.57890625 -28.6640625 67.87890625 C-29.9840625 67.21890625 -31.3040625 66.55890625 -32.6640625 65.87890625 Z " fill="#404042" transform="translate(172.6640625,98.12109375)"/>
<path d="M0 0 C10.64881493 6.16862278 15.68226144 25.16463369 18.7265625 36.25 C24.15302369 58.98548097 20.15171691 84.43478601 8.09814453 104.44311523 C7.71126465 105.06130127 7.32438477 105.6794873 6.92578125 106.31640625 C6.56210449 106.90558838 6.19842773 107.49477051 5.82373047 108.10180664 C4.11897821 110.67498156 2.60465809 112.36959543 -0.03125 113.99609375 C-2.51171875 114.44140625 -2.51171875 114.44140625 -4.58203125 113.45703125 C-5.26007813 112.874375 -5.938125 112.29171875 -6.63671875 111.69140625 C-7.40242188 111.04171875 -8.168125 110.39203125 -8.95703125 109.72265625 C-9.80007812 108.96984375 -10.643125 108.21703125 -11.51171875 107.44140625 C-12.49914062 106.58546875 -13.4865625 105.72953125 -14.50390625 104.84765625 C-22.34143974 97.95224329 -22.34143974 97.95224329 -23.51171875 94.44140625 C-22.33871484 91.88508712 -21.10642438 89.46671395 -19.76171875 87.00390625 C-11.95408819 71.91208057 -9.73380428 55.57003338 -14.59375 39.05078125 C-16.51937908 33.57707816 -18.76348738 28.58131395 -21.88671875 23.69140625 C-23.51171875 20.44140625 -23.51171875 20.44140625 -22.93359375 18.046875 C-20.06615044 12.79252146 -15.01715527 9.27102729 -10.51171875 5.44140625 C-9.7434375 4.76464844 -8.97515625 4.08789062 -8.18359375 3.390625 C-7.508125 2.82988281 -6.83265625 2.26914063 -6.13671875 1.69140625 C-5.55148438 1.2015625 -4.96625 0.71171875 -4.36328125 0.20703125 C-2.51171875 -0.55859375 -2.51171875 -0.55859375 0 0 Z M-5.51171875 20.44140625 C-4.97287629 25.42569897 -3.36665312 29.73817015 -1.546875 34.3671875 C0.99935357 41.92900594 1.87661075 49.10168064 1.86328125 57.06640625 C1.86239502 58.02554932 1.86150879 58.98469238 1.8605957 59.97290039 C1.70041397 69.69032099 -0.18591284 78.2582825 -4.1484375 87.1640625 C-5.70375292 90.31146193 -5.70375292 90.31146193 -5.51171875 93.44140625 C-4.85171875 93.44140625 -4.19171875 93.44140625 -3.51171875 93.44140625 C-2.54188085 91.15405271 -1.58598008 88.86229413 -0.63671875 86.56640625 C-0.36730469 85.93476563 -0.09789062 85.303125 0.1796875 84.65234375 C3.91779924 75.53499804 4.87904492 66.5526064 4.86328125 56.75390625 C4.86166992 55.70460937 4.86005859 54.6553125 4.85839844 53.57421875 C4.67749392 42.03889546 2.49665441 31.45536151 -3.51171875 21.44140625 C-4.17171875 21.11140625 -4.83171875 20.78140625 -5.51171875 20.44140625 Z " fill="#404042" transform="translate(213.51171875,77.55859375)"/>
<path d="M0 0 C3.84268594 3.27118166 7.31641046 6.40437032 10.1875 10.5625 C10.1875 11.5525 10.1875 12.5425 10.1875 13.5625 C10.8475 13.5625 11.5075 13.5625 12.1875 13.5625 C16.79456934 23.0338862 19.70900016 31.95866335 19.1875 42.5625 C19.8475 42.5625 20.5075 42.5625 21.1875 42.5625 C21.1875 43.2225 21.1875 43.8825 21.1875 44.5625 C21.8475 44.5625 22.5075 44.5625 23.1875 44.5625 C22.9709375 42.71785156 22.9709375 42.71785156 22.75 40.8359375 C22.56232274 39.20314536 22.37483263 37.57033171 22.1875 35.9375 C22.09210938 35.12925781 21.99671875 34.32101563 21.8984375 33.48828125 C21.40496383 29.15276261 21.07429283 24.93512689 21.1875 20.5625 C25.96306248 25.33806248 25.43523068 33.49662982 25.5 39.875 C25.43019296 52.20936611 22.0052659 61.74509153 16.1875 72.5625 C15.18191733 74.55969891 14.18040156 76.5589665 13.1875 78.5625 C12.5275 78.2325 11.8675 77.9025 11.1875 77.5625 C11.538125 76.82 11.88875 76.0775 12.25 75.3125 C13.23259293 72.4302274 13.2201802 71.35073655 12.1875 68.5625 C11.56875 69.201875 10.95 69.84125 10.3125 70.5 C-2.33134399 83.07220748 -15.5082868 93.01383611 -34.0625 93.0625 C-47.81937305 92.72993797 -60.0310036 87.63305752 -70.23046875 78.27734375 C-81.87462695 65.65565128 -86.08185975 52.18396169 -85.98046875 35.3125 C-85.8125 32.5625 -85.8125 32.5625 -84.8125 29.5625 C-84.1525 29.5625 -83.4925 29.5625 -82.8125 29.5625 C-82.85890625 30.71105469 -82.9053125 31.85960937 -82.953125 33.04296875 C-83.41326327 49.36289195 -80.0609629 63.40859991 -68.7578125 75.71484375 C-58.12081771 85.81785286 -44.75771739 90.05869635 -30.33984375 89.8125 C-16.66304085 88.84315849 -5.02856494 82.57442547 4.1875 72.5625 C8.17983681 67.20856622 10.78424715 61.70641585 12.546875 55.27734375 C13.1875 53.5625 13.1875 53.5625 15.1875 52.5625 C15.84149645 34.34143228 14.09506523 18.50587376 1.2734375 4.48046875 C-8.98916493 -4.95574434 -22.20760865 -10.05422516 -36.1171875 -9.68359375 C-49.38409654 -8.47226727 -61.76244001 -3.44828822 -70.8125 6.5625 C-75.89355491 13.36199102 -79.53749278 20.75983302 -82.8125 28.5625 C-83.1425 28.5625 -83.4725 28.5625 -83.8125 28.5625 C-84.21754471 24.01418539 -82.91913029 21.24381992 -80.8125 17.25 C-79.9771875 15.64705078 -79.9771875 15.64705078 -79.125 14.01171875 C-78.691875 13.20347656 -78.25875 12.39523438 -77.8125 11.5625 C-77.1525 11.5625 -76.4925 11.5625 -75.8125 11.5625 C-75.42578125 10.44681641 -75.42578125 10.44681641 -75.03125 9.30859375 C-71.11260218 0.47907638 -61.48510838 -5.02181779 -52.94140625 -8.66015625 C-34.19858089 -15.75547277 -15.67153843 -12.44935296 0 0 Z " fill="#3A393B" transform="translate(174.8125,94.4375)"/>
<path d="M0 0 C10.64881493 6.16862278 15.68226144 25.16463369 18.7265625 36.25 C24.15302369 58.98548097 20.15171691 84.43478601 8.09814453 104.44311523 C7.71126465 105.06130127 7.32438477 105.6794873 6.92578125 106.31640625 C6.56210449 106.90558838 6.19842773 107.49477051 5.82373047 108.10180664 C4.11897821 110.67498156 2.60465809 112.36959543 -0.03125 113.99609375 C-2.51171875 114.44140625 -2.51171875 114.44140625 -4.58203125 113.45703125 C-5.26007813 112.874375 -5.938125 112.29171875 -6.63671875 111.69140625 C-7.40242188 111.04171875 -8.168125 110.39203125 -8.95703125 109.72265625 C-9.80007812 108.96984375 -10.643125 108.21703125 -11.51171875 107.44140625 C-12.49914062 106.58546875 -13.4865625 105.72953125 -14.50390625 104.84765625 C-22.34143974 97.95224329 -22.34143974 97.95224329 -23.51171875 94.44140625 C-22.33871484 91.88508712 -21.10642438 89.46671395 -19.76171875 87.00390625 C-11.95408819 71.91208057 -9.73380428 55.57003338 -14.59375 39.05078125 C-16.51937908 33.57707816 -18.76348738 28.58131395 -21.88671875 23.69140625 C-23.51171875 20.44140625 -23.51171875 20.44140625 -22.93359375 18.046875 C-20.06615044 12.79252146 -15.01715527 9.27102729 -10.51171875 5.44140625 C-9.7434375 4.76464844 -8.97515625 4.08789062 -8.18359375 3.390625 C-7.508125 2.82988281 -6.83265625 2.26914063 -6.13671875 1.69140625 C-5.55148438 1.2015625 -4.96625 0.71171875 -4.36328125 0.20703125 C-2.51171875 -0.55859375 -2.51171875 -0.55859375 0 0 Z M-8.94921875 7.12890625 C-9.50931641 7.56396484 -10.06941406 7.99902344 -10.64648438 8.44726562 C-15.9181593 12.59231842 -15.9181593 12.59231842 -20.51171875 17.44140625 C-20.55372511 21.7540588 -18.15764741 25.22357968 -16.13671875 28.94140625 C-8.79499859 43.09416485 -8.12022556 57.04219393 -11.51171875 72.44140625 C-11.79789063 73.77171875 -11.79789063 73.77171875 -12.08984375 75.12890625 C-12.55076339 77.23596746 -13.02923989 79.33917695 -13.51171875 81.44140625 C-14.17171875 81.44140625 -14.83171875 81.44140625 -15.51171875 81.44140625 C-15.80175781 82.36373047 -15.80175781 82.36373047 -16.09765625 83.3046875 C-16.35804688 84.11292969 -16.6184375 84.92117187 -16.88671875 85.75390625 C-17.14195312 86.55441406 -17.3971875 87.35492188 -17.66015625 88.1796875 C-18.51171875 90.44140625 -18.51171875 90.44140625 -20.51171875 93.44140625 C-20.39369826 96.794261 -19.86757938 98.0875908 -17.47265625 100.46875 C-16.61929688 101.09910156 -15.7659375 101.72945313 -14.88671875 102.37890625 C-11.65523088 104.80713857 -8.58906495 107.24410437 -5.63671875 110.00390625 C-2.91648827 112.63022718 -2.91648827 112.63022718 -0.56640625 112.47265625 C2.61726901 110.87476601 3.70366052 108.41485285 5.48828125 105.37890625 C6.14828125 104.27417969 6.80828125 103.16945313 7.48828125 102.03125 C17.37463695 84.53664608 23.16982967 61.92871551 18.30078125 41.94140625 C17.70723085 40.10460839 17.10250734 38.2713939 16.48828125 36.44140625 C16.03802241 34.57462514 15.58818168 32.70772222 15.14868164 30.83837891 C13.36145353 23.43296187 10.84212742 16.73582386 6.48828125 10.44140625 C5.82828125 10.11140625 5.16828125 9.78140625 4.48828125 9.44140625 C3.43475282 7.13174777 2.43109029 4.79842885 1.48828125 2.44140625 C-3.37996703 2.44140625 -5.34103198 4.22173862 -8.94921875 7.12890625 Z " fill="#222123" transform="translate(213.51171875,77.55859375)"/>
<path d="M0 0 C-0.01160156 0.6705542 -0.02320312 1.3411084 -0.03515625 2.03198242 C-0.06472319 5.08503283 -0.03296569 8.13451081 0 11.1875 C-0.01933594 12.24259766 -0.03867187 13.29769531 -0.05859375 14.38476562 C-0.09984037 20.17276921 -0.09984037 20.17276921 2.84765625 24.85400391 C4.8585679 26.11082369 6.79736521 27.12854185 9 28 C8.67 28.66 8.34 29.32 8 30 C3.61606703 28.91967366 0.83697593 27.56363994 -2 24 C-3.39124833 16.82287976 -2.59707158 9.24018185 -2 2 C-8.32693867 5.38367688 -11.4320269 10.49072688 -14.3125 16.9375 C-16.17926515 25.25309023 -16.51956634 32.03907613 -13 40 C-12.00541567 41.33737795 -11.00632063 42.67143063 -10 44 C-10 44.66 -10 45.32 -10 46 C-9.01 46.33 -8.02 46.66 -7 47 C-7 47.66 -7 48.32 -7 49 C-6.360625 49.28875 -5.72125 49.5775 -5.0625 49.875 C-3 51 -3 51 -2 53 C-1.87531408 55.87170858 -1.81107959 58.72006766 -1.79125977 61.59301758 C-1.77658409 62.9274012 -1.77658409 62.9274012 -1.76161194 64.28874207 C-1.73163069 67.24065649 -1.7102659 70.19252556 -1.69140625 73.14453125 C-1.68483442 74.15145208 -1.6782626 75.15837292 -1.67149162 76.1958065 C-1.63888724 81.52481049 -1.6144381 86.85379437 -1.5949707 92.18286133 C-1.57714692 96.59754443 -1.54231088 101.01159006 -1.49243164 105.42602539 C-1.43232192 110.75168857 -1.40150764 116.07675992 -1.39179802 121.4027462 C-1.38322693 123.43338592 -1.36436832 125.46400913 -1.3350544 127.49445534 C-1.2962287 130.33660767 -1.29509335 133.1764452 -1.30297852 136.01879883 C-1.28297791 136.8579483 -1.26297729 137.69709778 -1.24237061 138.56167603 C-1.31224036 144.1702394 -1.31224036 144.1702394 -3.32594109 146.59970665 C-4.94297791 147.9460907 -4.94297791 147.9460907 -8 150 C-9.59843158 151.76032147 -9.59843158 151.76032147 -10.75 153.5 C-11.33007812 154.31984375 -11.33007812 154.31984375 -11.921875 155.15625 C-14.45593439 159.48985882 -15.29583041 163.32009457 -15.625 168.3125 C-15.69976563 169.38113281 -15.77453125 170.44976562 -15.8515625 171.55078125 C-15.90054687 172.35902344 -15.94953125 173.16726562 -16 174 C-16.99 174 -17.98 174 -19 174 C-19.55246927 165.57484364 -18.43902829 157.99215872 -12.765625 151.40625 C-11.1879286 149.85870066 -9.57635194 148.34457521 -7.92578125 146.875 C-5.11704633 144.14032909 -5.00918399 142.24978508 -4.86628723 138.36329651 C-4.85728152 136.82107658 -4.85385877 135.27881824 -4.85473633 133.73657227 C-4.85137772 132.89399872 -4.8480191 132.05142517 -4.84455872 131.18331909 C-4.83504935 128.3943332 -4.83310567 125.60540735 -4.83203125 122.81640625 C-4.82881887 120.87971471 -4.82545481 118.94302342 -4.82194519 117.0063324 C-4.8159541 112.94521522 -4.81410529 108.88411933 -4.81469727 104.82299805 C-4.81479893 99.61636361 -4.80114179 94.40986541 -4.78392506 89.20326328 C-4.77281328 85.2030118 -4.7707778 81.20279334 -4.77130699 77.202528 C-4.77012582 75.28277046 -4.76569641 73.3630121 -4.75797462 71.44326973 C-4.74819056 68.75968978 -4.75104642 66.07640688 -4.75708008 63.39282227 C-4.74865082 62.20119225 -4.74865082 62.20119225 -4.74005127 60.98548889 C-4.75845779 55.67473223 -4.75845779 55.67473223 -7 51 C-7.763125 50.4225 -8.52625 49.845 -9.3125 49.25 C-15.13639628 44.37417986 -18.51362077 37.45659107 -19.3359375 29.921875 C-19.47035939 19.00681755 -17.11057768 11.7226407 -9.78125 3.59375 C-6.44731419 0.61075481 -4.53711738 0 0 0 Z " fill="#2C2C2D" transform="translate(37,36)"/>
<path d="M0 0 C0.66 0 1.32 0 2 0 C2 9.24 2 18.48 2 28 C2.66 28.33 3.32 28.66 4 29 C3.34 29 2.68 29 2 29 C2.08678763 31.29239061 2.19495273 33.5839807 2.3125 35.875 C2.37050781 37.15117187 2.42851563 38.42734375 2.48828125 39.7421875 C2.65714844 40.81726563 2.82601562 41.89234375 3 43 C3.99 43.66 4.98 44.32 6 45 C6 45.66 6 46.32 6 47 C6.66 47 7.32 47 8 47 C10.38784546 49.62663001 12.07328688 52.14385943 13.6875 55.3125 C19.83527363 66.25506232 32.87327004 73.04059572 44.5 76.3125 C46.21703125 76.73982422 46.21703125 76.73982422 47.96875 77.17578125 C51 78 51 78 53.03125 79.04296875 C66.39825293 85.54081739 88.21399381 80.71115363 101.625 76.3125 C111.11538202 72.56215296 120.21821394 67.3874786 127.546875 60.25 C129 59 129 59 131 59 C131.45169962 56.72276203 131.45169962 56.72276203 131 54 C129.24131716 52.01192375 127.63746286 50.43040649 125.625 48.75 C125.11710937 48.30398437 124.60921875 47.85796875 124.0859375 47.3984375 C122.13337835 45.70279402 120.32174544 44.16087272 118 43 C118.33 41.68 118.66 40.36 119 39 C119.61875 39.804375 120.2375 40.60875 120.875 41.4375 C122.74164041 44.03874519 122.74164041 44.03874519 125 45 C125 45.66 125 46.32 125 47 C125.53625 47.226875 126.0725 47.45375 126.625 47.6875 C129.78500863 49.43382056 132.2676983 51.6402849 135 54 C131.93810256 63.92477102 119.65847412 70.23818668 111.00219727 75.01098633 C91.21386595 85.42974435 67.26122874 86.84065044 45.96142578 80.38183594 C30.44016266 75.145839 16.02358982 66.17114595 7.3125 52.015625 C5.5151118 49.25535027 3.42465876 47.21683087 1 45 C-0.73798086 43.26201914 -0.23262765 40.85783478 -0.31640625 38.48828125 C-0.35846191 37.34359375 -0.40051758 36.19890625 -0.44384766 35.01953125 C-0.48300293 33.79621094 -0.5221582 32.57289063 -0.5625 31.3125 C-0.6042334 30.08273438 -0.6459668 28.85296875 -0.68896484 27.5859375 C-1.44269185 4.32807555 -1.44269185 4.32807555 0 0 Z " fill="#282829" transform="translate(69,135)"/>
<path d="M0 0 C2.58639357 1.00101006 3.7814855 1.62366948 5.1953125 4.05859375 C5.65550781 5.23615234 5.65550781 5.23615234 6.125 6.4375 C7.25616024 9.27474903 8.28509512 11.42764268 10 14 C13.05509616 22.2263369 13.31539362 30.57462216 13.375 39.25 C13.39554443 40.77596802 13.39554443 40.77596802 13.41650391 42.33276367 C13.37743455 48.81035714 12.32851493 53.98563707 10 60 C9.690625 61.155 9.38125 62.31 9.0625 63.5 C7.75859662 67.79521112 6.32728513 72.14051647 4 76 C1 77 1 77 -2 76 C-1.10849149 70.62055663 0.90594964 65.74342843 2.84375 60.66796875 C7.03300763 47.3783981 7.76116224 26.01585958 1.71875 13.3046875 C0.82952914 11.61022774 -0.09737326 9.93456561 -1.07421875 8.2890625 C-2.22752956 5.43741636 -1.90155331 3.89891728 -1 1 C-0.67 0.67 -0.34 0.34 0 0 Z M0 2 C0.53884246 6.98429272 2.14506563 11.2967639 3.96484375 15.92578125 C6.51107232 23.48759969 7.3883295 30.66027439 7.375 38.625 C7.37411377 39.58414307 7.37322754 40.54328613 7.37231445 41.53149414 C7.21213272 51.24891474 5.32580591 59.81687625 1.36328125 68.72265625 C-0.19203417 71.87005568 -0.19203417 71.87005568 0 75 C0.66 75 1.32 75 2 75 C2.9698379 72.71264646 3.92573867 70.42088788 4.875 68.125 C5.14441406 67.49335938 5.41382813 66.86171875 5.69140625 66.2109375 C9.42951799 57.09359179 10.39076367 48.11120015 10.375 38.3125 C10.37338867 37.26320312 10.37177734 36.21390625 10.37011719 35.1328125 C10.18921267 23.59748921 8.00837316 13.01395526 2 3 C1.34 2.67 0.68 2.34 0 2 Z " fill="#28282A" transform="translate(208,96)"/>
<path d="M0 0 C0.66 0 1.32 0 2 0 C1.95359375 1.14855469 1.9071875 2.29710938 1.859375 3.48046875 C1.39923673 19.80039195 4.7515371 33.84609991 16.0546875 46.15234375 C26.69168229 56.25535286 40.05478261 60.49619635 54.47265625 60.25 C68.14945915 59.28065849 79.78393506 53.01192547 89 43 C92.99233681 37.64606622 95.59674715 32.14391585 97.359375 25.71484375 C98 24 98 24 100 23 C100 21.35 100 19.7 100 18 C100.33 18 100.66 18 101 18 C101.36664546 28.44939549 98.33740261 35.69018295 92 44 C88.87491232 47.29277532 85.56603244 50.19487257 82 53 C81.37609375 53.49242187 80.7521875 53.98484375 80.109375 54.4921875 C68.14911022 62.86437285 54.05251485 64.60945126 39.96875 62.55859375 C26.50468157 59.48275053 15.1780099 50.97407555 7.63671875 39.63671875 C0.29816214 27.81446168 -1.8500232 16.91665887 -1 3 C-0.67 2.01 -0.34 1.02 0 0 Z " fill="#29292B" transform="translate(90,124)"/>
<path d="M0 0 C0.66 0 1.32 0 2 0 C1.98445572 1.12229004 1.96891144 2.24458008 1.95289612 3.40087891 C1.81079854 13.9938322 1.70596737 24.58659135 1.6373148 35.18028259 C1.60083228 40.62629008 1.55137259 46.07152625 1.47192383 51.51708984 C1.39568687 56.77560978 1.35397225 62.03338937 1.3358593 67.29241943 C1.32295693 69.29550833 1.2977606 71.29855814 1.2598896 73.30133057 C0.48763072 85.46298401 0.48763072 85.46298401 5.36694336 96.0390625 C6.56747989 97.03876578 7.77804345 98.02659525 9 99 C14.68178056 106.6186362 17.12868844 114.48873522 16 124 C14.5063052 129.87468626 13.29191319 134.6314082 8 138 C8.91395919 135.64981922 9.81408564 133.35068552 10.99609375 131.12109375 C14.0270373 124.71719356 14.93673459 116.85666519 13 110 C12.34 109.67 11.68 109.34 11 109 C10.375 105.9375 10.375 105.9375 10 103 C9.34 103 8.68 103 8 103 C7.54625 102.236875 7.0925 101.47375 6.625 100.6875 C5.21262115 97.94073901 5.21262115 97.94073901 2.9375 96.5625 C0.1850535 94.34278508 -0.11383426 92.41824502 -1 89 C-1.26892441 86.08235945 -1.26349708 83.18496415 -1.24291992 80.2565918 C-1.24481827 79.39900772 -1.24671661 78.54142365 -1.24867249 77.65785217 C-1.25236167 74.83821317 -1.24170611 72.01883464 -1.23046875 69.19921875 C-1.22927623 67.23720836 -1.22882394 65.27519738 -1.2290802 63.31318665 C-1.22751877 59.21030075 -1.21925218 55.10750253 -1.20581055 51.00463867 C-1.18876513 45.73392998 -1.18499798 40.46331706 -1.18575573 35.19258404 C-1.18548455 31.14613422 -1.1800126 27.09970552 -1.17275429 23.05326271 C-1.16956361 21.10870333 -1.16759929 19.16414155 -1.16686058 17.2195797 C-1.1647044 14.51182296 -1.15597761 11.80417014 -1.14526367 9.09643555 C-1.14571686 8.2865921 -1.14617004 7.47674866 -1.14663696 6.6423645 C-1.11447933 1.11447933 -1.11447933 1.11447933 0 0 Z " fill="#353536" transform="translate(64,88)"/>
<path d="M0 0 C10.61178888 6.34676368 15.62061806 25.10584631 18.6875 36.2734375 C24.11396119 59.00891847 20.11265441 84.45822351 8.05908203 104.46655273 C7.67220215 105.08473877 7.28532227 105.7029248 6.88671875 106.33984375 C6.52304199 106.92902588 6.15936523 107.51820801 5.78466797 108.12524414 C3.44771799 111.6526664 1.54029179 113.32883401 -2.55078125 114.46484375 C-3.87078125 113.14484375 -5.19078125 111.82484375 -6.55078125 110.46484375 C-3.92964417 110.46484375 -2.04143013 110.7777682 0.44921875 111.46484375 C1.70364336 109.46750748 2.95275539 107.46714127 4.19921875 105.46484375 C4.8953125 104.35109375 5.59140625 103.23734375 6.30859375 102.08984375 C16.61322538 84.96869946 22.07101113 61.70685612 17.26171875 41.96484375 C16.66981002 40.1275162 16.06495759 38.29432295 15.44921875 36.46484375 C14.98135205 34.58143142 14.5139708 32.69786813 14.05908203 30.8112793 C11.23909475 18.61196707 11.23909475 18.61196707 3.44921875 9.46484375 C2.26171875 5.83984375 2.26171875 5.83984375 1.44921875 2.46484375 C-3.33084733 4.37687018 -7.34851078 6.4925061 -11.55078125 9.46484375 C-11.00333078 5.77760381 -9.72254347 4.34157779 -6.80078125 2.08984375 C-6.1253125 1.54585938 -5.44984375 1.001875 -4.75390625 0.44140625 C-2.55078125 -0.53515625 -2.55078125 -0.53515625 0 0 Z " fill="#2B2B2C" transform="translate(213.55078125,77.53515625)"/>
<path d="M0 0 C3.84268594 3.27118166 7.31641046 6.40437032 10.1875 10.5625 C10.1875 11.5525 10.1875 12.5425 10.1875 13.5625 C10.8475 13.5625 11.5075 13.5625 12.1875 13.5625 C14.80157872 18.92440101 16.67978528 23.59685204 17.1875 29.5625 C16.5275 29.5625 15.8675 29.5625 15.1875 29.5625 C14.775 28.52351563 14.3625 27.48453125 13.9375 26.4140625 C7.90201237 11.65060391 0.4212376 1.34402181 -14.3125 -5.75 C-26.69807239 -10.82177217 -39.17638626 -10.48714609 -51.8125 -6.4375 C-68.17653505 0.61228011 -76.08652667 12.53794604 -82.8125 28.5625 C-83.1425 28.5625 -83.4725 28.5625 -83.8125 28.5625 C-84.21754471 24.01418539 -82.91913029 21.24381992 -80.8125 17.25 C-79.9771875 15.64705078 -79.9771875 15.64705078 -79.125 14.01171875 C-78.691875 13.20347656 -78.25875 12.39523438 -77.8125 11.5625 C-77.1525 11.5625 -76.4925 11.5625 -75.8125 11.5625 C-75.42578125 10.44681641 -75.42578125 10.44681641 -75.03125 9.30859375 C-71.11260218 0.47907638 -61.48510838 -5.02181779 -52.94140625 -8.66015625 C-34.19858089 -15.75547277 -15.67153843 -12.44935296 0 0 Z " fill="#282729" transform="translate(174.8125,94.4375)"/>
<path d="M0 0 C0.66 0 1.32 0 2 0 C1.98428955 0.61407715 1.9685791 1.2281543 1.95239258 1.86083984 C1.88923806 4.69879589 1.85075823 7.53660333 1.8125 10.375 C1.78736328 11.34050781 1.76222656 12.30601562 1.73632812 13.30078125 C1.64700664 22.17338202 2.98297206 30.08433937 8.4375 37.3125 C9.04980469 38.13234375 9.66210938 38.9521875 10.29296875 39.796875 C10.85628906 40.52390625 11.41960937 41.2509375 12 42 C12.7425 43.010625 13.485 44.02125 14.25 45.0625 C15.94046423 47.25351988 15.94046423 47.25351988 19 48 C19 48.66 19 49.32 19 50 C22.08849696 51.62437458 25.21917274 52.87725609 28.5 54.0625 C29.4384375 54.40410156 30.376875 54.74570313 31.34375 55.09765625 C41.52668175 58.55685807 55.16648175 58.72008876 65 54 C67.92628392 52.3008674 70.75383408 50.51963142 73.5546875 48.62109375 C75.65796278 47.22674992 77.71811551 46.06664833 80 45 C80 45.66 80 46.32 80 47 C68.35310565 56.87189792 55.1596376 61.19982056 40 60 C27.43986029 58.08377356 15.64643569 52.35968706 8 42 C0.31644816 31.15006951 -2.82103629 20.2129561 -2 7 C-1.51218635 4.53972248 -0.8428065 2.37039328 0 0 Z " fill="#242426" transform="translate(95,122)"/>
<path d="M0 0 C2.9375 0.375 2.9375 0.375 6 1 C7.42765722 3.85531445 7.15101754 6.30560878 7.17700195 9.49755859 C7.18357315 10.16442184 7.19014435 10.8312851 7.19691467 11.51835632 C7.21664891 13.72838449 7.22830976 15.93834474 7.23828125 18.1484375 C7.24235678 18.90285755 7.2464323 19.6572776 7.25063133 20.43455887 C7.27149151 24.4267474 7.28579404 28.41890156 7.29516602 32.41113281 C7.3062372 36.53621494 7.34064473 40.66075863 7.38033772 44.78565025 C7.40646996 47.95638031 7.41485473 51.12698132 7.41844749 54.2978096 C7.42332143 55.81847398 7.43495845 57.33913229 7.45348549 58.85969162 C7.47780916 60.98811413 7.47692555 63.11513369 7.4699707 65.24365234 C7.47583694 66.45451508 7.48170319 67.66537781 7.48774719 68.91293335 C6.9070952 72.5880163 5.96065452 73.80942849 3 76 C0.75 75.75 0.75 75.75 -1 75 C-1.33 73.68 -1.66 72.36 -2 71 C-1.34 71 -0.68 71 0 71 C0 71.66 0 72.32 0 73 C1.32 73 2.64 73 4 73 C4 49.57 4 26.14 4 2 C2.68 2 1.36 2 0 2 C0 2.66 0 3.32 0 4 C-0.66 4 -1.32 4 -2 4 C-1.34 2.68 -0.68 1.36 0 0 Z " fill="#232324" transform="translate(47,97)"/>
<path d="M0 0 C4.48180275 3.21430586 8.82172232 6.82659052 11 12 C11.1875 14.8125 11.1875 14.8125 11 17 C10.01 17.495 10.01 17.495 9 18 C8.62875 16.824375 8.2575 15.64875 7.875 14.4375 C5.72560916 8.75624629 2.62782641 4.31391321 -2.875 1.5625 C-9.5606573 0.35908169 -14.22269676 0.42406592 -20.171875 3.7265625 C-24.27601826 6.58543153 -27.08706389 10.00190533 -28 15 C-28.51277977 20.9758566 -28.56329989 25.94241306 -25 31 C-20.38824821 35.63355676 -16.89010417 38.12644969 -10.1875 38.25 C-5.72394971 38.21746683 -2.85944393 37.35331947 1 35 C1.99 34.67 2.98 34.34 4 34 C3.67 34.99 3.34 35.98 3 37 C2.34 37 1.68 37 1 37 C1 37.66 1 38.32 1 39 C-4.20885343 41.77805516 -10.36759125 41.95884393 -16.02734375 40.46484375 C-19.84362894 38.93665953 -23.01452732 36.80453495 -26 34 C-26 33.34 -26 32.68 -26 32 C-26.66 32 -27.32 32 -28 32 C-32.13210702 23.73578595 -32.13210702 23.73578595 -31.125 17.5 C-30.94195312 16.3346875 -30.75890625 15.169375 -30.5703125 13.96875 C-30 11 -30 11 -29 9 C-28.34 9 -27.68 9 -27 9 C-26.95875 8.443125 -26.9175 7.88625 -26.875 7.3125 C-25.56161921 3.84142219 -23.00806597 1.9889782 -20 0 C-13.30797303 -2.9900546 -6.74697854 -2.72246503 0 0 Z " fill="#2B2A2C" transform="translate(151,115)"/>
<path d="M0 0 C-0.66 1.32 -1.32 2.64 -2 4 C-2.66 4 -3.32 4 -4 4 C-4 4.66 -4 5.32 -4 6 C-5.42578125 7.296875 -5.42578125 7.296875 -7.3125 8.75 C-10.69486161 11.54617544 -12.06051537 14.04345135 -14 18 C-14.62060303 18.54575684 -15.24120605 19.09151367 -15.88061523 19.65380859 C-19.62125609 22.97220695 -22.09333642 25.90831113 -22.6862793 30.94702148 C-22.9594823 35.57501878 -22.79548022 40.18363236 -22.625 44.8125 C-22.60197937 46.42378205 -22.58242024 48.03511746 -22.56640625 49.64648438 C-22.53957784 51.18755747 -22.50973725 52.72858171 -22.4765625 54.26953125 C-22.46178864 54.98623489 -22.44701477 55.70293854 -22.43179321 56.44136047 C-22.29230831 60.08939136 -21.98920693 62.89004965 -20 66 C-21.485 66.495 -21.485 66.495 -23 67 C-23 66.01 -23 65.02 -23 64 C-23.66 64 -24.32 64 -25 64 C-25.12366591 58.51912668 -25.21436943 53.03906643 -25.2746582 47.55712891 C-25.29979147 45.69272719 -25.33390383 43.8284239 -25.37719727 41.96435547 C-25.43790352 39.28328169 -25.46622058 36.60351098 -25.48828125 33.921875 C-25.51408768 33.08944275 -25.5398941 32.2570105 -25.56648254 31.39935303 C-25.56756771 29.15662308 -25.51650049 27.18293637 -25 25 C-22.57104492 22.5925293 -22.57104492 22.5925293 -20 21 C-18.33614924 18.62442762 -18.33614924 18.62442762 -17 16.0625 C-14.71051684 12.08357635 -12.4785858 9.05436802 -9 6 C-8.40703125 5.46246094 -7.8140625 4.92492187 -7.203125 4.37109375 C-2.29451856 0 -2.29451856 0 0 0 Z " fill="#2D2D2E" transform="translate(94,65)"/>
<path d="M0 0 C3.93438516 0.58627283 6.77930831 1.77583477 10.1875 3.8125 C11.04730469 4.31394531 11.90710938 4.81539062 12.79296875 5.33203125 C15.24135033 7.18240105 16.08670479 8.08855614 17 11 C17.1953125 14.453125 17.1953125 14.453125 17.125 18.25 C17.10695313 19.51328125 17.08890625 20.7765625 17.0703125 22.078125 C17.04710938 23.04234375 17.02390625 24.0065625 17 25 C19.76264289 25.59732819 22.16032769 26 25 26 C19 32 19 32 16.4375 32.0625 C15.633125 32.041875 14.82875 32.02125 14 32 C14.0220752 31.33468262 14.04415039 30.66936523 14.06689453 29.98388672 C14.91013417 17.4259952 14.91013417 17.4259952 10.91796875 6.06640625 C6.77849356 3.47845849 4.20475109 2.79228429 -0.625 3.625 C-1.40875 4.07875 -2.1925 4.5325 -3 5 C-2.67 4.01 -2.34 3.02 -2 2 C-1.34 2 -0.68 2 0 2 C0 1.34 0 0.68 0 0 Z " fill="#2F2F30" transform="translate(47,201)"/>
<path d="M0 0 C5.58297067 -0.159856 6.97664565 1.25734479 11 5 C10.67 5.99 10.34 6.98 10 8 C9.1028125 7.0409375 9.1028125 7.0409375 8.1875 6.0625 C6.09189663 3.79689611 6.09189663 3.79689611 3 3 C3.0628418 3.59949463 3.12568359 4.19898926 3.19042969 4.81665039 C4.38860128 17.91944034 4.38860128 17.91944034 3 24 C-0.39344087 28.01477512 -3.94532295 29.71254775 -9 31 C-11.89453125 31.13671875 -11.89453125 31.13671875 -14 31 C-12.27322232 27.54644464 -7.88113953 26.95614857 -4.37890625 25.6640625 C-2.45021235 24.6625628 -2.45021235 24.6625628 -1 23 C0.03873367 19.09476092 -0.02105801 15.27231049 -0.0625 11.25 C-0.04638672 10.17105469 -0.03027344 9.09210937 -0.01367188 7.98046875 C0.02165701 5.31902607 0.02506609 2.66144739 0 0 Z " fill="#343435" transform="translate(61,36)"/>
<path d="M0 0 C0.33 0 0.66 0 1 0 C1.36664546 10.44939549 -1.66259739 17.69018295 -8 26 C-15.70754595 34.12112159 -25.50929271 42.19747696 -37.125 43.1796875 C-38.75109026 43.18624432 -40.37719901 43.10358304 -42 43 C-42 42.67 -42 42.34 -42 42 C-41.32195312 41.84144531 -40.64390625 41.68289062 -39.9453125 41.51953125 C-26.43997072 38.13384308 -15.18299982 32.09871947 -7.5625 20 C-5.36451386 16.04362494 -3.83610052 12.07526406 -2.640625 7.71484375 C-2 6 -2 6 0 5 C0 3.35 0 1.7 0 0 Z " fill="#252326" transform="translate(190,142)"/>
<path d="M0 0 C0.66 0 1.32 0 2 0 C1.98428955 0.61407715 1.9685791 1.2281543 1.95239258 1.86083984 C1.88923806 4.69879589 1.85075823 7.53660333 1.8125 10.375 C1.78736328 11.34050781 1.76222656 12.30601562 1.73632812 13.30078125 C1.64106844 22.76324324 3.43524638 30.32447777 9 38 C9 38.66 9 39.32 9 40 C6.254831 38.97786261 5.14929385 38.24126216 3.5859375 35.71484375 C-1.51497817 24.01564684 -4.42538323 12.44639035 0 0 Z " fill="#282729" transform="translate(95,122)"/>
<path d="M0 0 C9.5019749 2.76268874 18.57331326 9.64697706 24 18 C24 18.99 24 19.98 24 21 C24.66 21 25.32 21 26 21 C28.61407872 26.36190101 30.49228528 31.03435204 31 37 C30.34 37 29.68 37 29 37 C28.5875 35.96101563 28.175 34.92203125 27.75 33.8515625 C21.83294544 19.37780408 14.52323007 8.92851343 0 2 C0 1.34 0 0.68 0 0 Z " fill="#1F1F21" transform="translate(161,87)"/>
<path d="M0 0 C3.17902053 2.19478735 5.17234845 4.46148849 7.359375 7.62890625 C3.25098436 6.17888602 -0.14407113 4.23099285 -3.640625 1.62890625 C-3.640625 0.96890625 -3.640625 0.30890625 -3.640625 -0.37109375 C-17.70203973 -4.41406833 -29.26355202 -5.1378157 -43.640625 -2.37109375 C-43.640625 -3.03109375 -43.640625 -3.69109375 -43.640625 -4.37109375 C-28.25214108 -9.46019867 -14.1065085 -8.13366603 0 0 Z " fill="#2A292B" transform="translate(167.640625,94.37109375)"/>
<path d="M0 0 C1.1725131 0.95117134 2.33787015 1.91117009 3.5 2.875 C4.1496875 3.40867188 4.799375 3.94234375 5.46875 4.4921875 C5.9740625 4.98976562 6.479375 5.48734375 7 6 C7 6.66 7 7.32 7 8 C7.53625 8.226875 8.0725 8.45375 8.625 8.6875 C11.78500863 10.43382056 14.2676983 12.6402849 17 15 C14.07626194 24.66553405 1.86059793 30.9956386 -6.40625 35.91796875 C-9.20648097 37.08613739 -10.23875033 37.12664196 -13 36 C-12.02160156 35.5153125 -11.04320312 35.030625 -10.03515625 34.53125 C-2.77839591 30.84962705 3.52051966 27.25586624 9.36328125 21.46875 C11 20 11 20 13 20 C13.45169962 17.72276203 13.45169962 17.72276203 13 15 C11.24131716 13.01192375 9.63746286 11.43040649 7.625 9.75 C7.11710937 9.30398437 6.60921875 8.85796875 6.0859375 8.3984375 C4.13337835 6.70279402 2.32174544 5.16087272 0 4 C0 2.68 0 1.36 0 0 Z " fill="#232323" transform="translate(187,174)"/>
<path d="M0 0 C0.66 0 1.32 0 2 0 C2.350625 0.845625 2.70125 1.69125 3.0625 2.5625 C4.76642688 5.58559608 5.96439112 7.04106094 8.4375 9.3125 C14.29246212 14.88275995 17.06181219 22.55368404 17.3125 30.5625 C17.2516165 36.42471147 15.78477396 41.8344162 13 47 C10.859375 48.81640625 10.859375 48.81640625 9 50 C9.91395919 47.64981922 10.81408564 45.35068552 11.99609375 43.12109375 C15.0270373 36.71719356 15.93673459 28.85666519 14 22 C13.34 21.67 12.68 21.34 12 21 C11.375 17.9375 11.375 17.9375 11 15 C10.34 15 9.68 15 9 15 C8.54625 14.236875 8.0925 13.47375 7.625 12.6875 C6.22175634 9.93681353 6.22175634 9.93681353 3.9375 8.625 C1.09326649 6.23951383 0.79921093 3.52984826 0 0 Z " fill="#2C2C2D" transform="translate(63,176)"/>
<path d="M0 0 C-1 3 -1 3 -3.74609375 4.42578125 C-5.35677734 5.20501953 -5.35677734 5.20501953 -7 6 C-15.76957462 12.68597644 -20.99059514 19.87097719 -25 30 C-25.66 30 -26.32 30 -27 30 C-26.50835676 20.65877846 -19.84819661 13.16484388 -13.3828125 6.984375 C-9.7372033 3.94835947 -4.94625967 0 0 0 Z " fill="#272729" transform="translate(123,91)"/>
<path d="M0 0 C3.68983644 5.53475466 2.5108606 12.21932764 1.34765625 18.55078125 C-0.88221062 27.30755458 -4.23286505 35.82191003 -12 41 C-11.34 39.35 -10.68 37.7 -10 36 C-9.34 36 -8.68 36 -8 36 C-7.32438252 34.3369416 -6.66066719 32.66905395 -6 31 C-5.525625 29.845 -5.05125 28.69 -4.5625 27.5 C-2.31422118 21.51223702 0 14.426409 0 8 C-0.66 7.67 -1.32 7.34 -2 7 C-1.67 6.67 -1.34 6.34 -1 6 C-1 5.175 -1 4.35 -1 3.5 C-1 1 -1 1 0 0 Z " fill="#2D2A2D" transform="translate(187,126)"/>
<path d="M0 0 C0 0.99 0 1.98 0 3 C-0.83978394 3.16604736 -0.83978394 3.16604736 -1.6965332 3.33544922 C-4.23662177 3.84172841 -6.77452339 4.35824231 -9.3125 4.875 C-10.19357422 5.04902344 -11.07464844 5.22304688 -11.98242188 5.40234375 C-12.82998047 5.57636719 -13.67753906 5.75039063 -14.55078125 5.9296875 C-15.33106689 6.08679199 -16.11135254 6.24389648 -16.9152832 6.40576172 C-19.27729245 6.96432022 -19.27729245 6.96432022 -22 9 C-25.29439042 10.19158802 -28.586541 11.21227869 -32 12 C-31.67 11.34 -31.34 10.68 -31 10 C-30.34 10 -29.68 10 -29 10 C-28.67 9.01 -28.34 8.02 -28 7 C-25.73010368 5.97733281 -23.61236182 5.1769538 -21.25 4.4375 C-20.58347412 4.22134033 -19.91694824 4.00518066 -19.23022461 3.7824707 C-12.92360813 1.81963245 -6.56029132 0.74121335 0 0 Z " fill="#363637" transform="translate(134,50)"/>
<path d="M0 0 C1.05056979 3.22824096 1.12177459 3.74586174 -0.4375 7 C-0.953125 7.99 -1.46875 8.98 -2 10 C-2 11.32 -2 12.64 -2 14 C0.06136527 16.14357497 0.06136527 16.14357497 2.75 18.0625 C3.63171875 18.73410156 4.5134375 19.40570313 5.421875 20.09765625 C7.04201383 21.29312233 8.6757805 22.47055186 10.328125 23.62109375 C10.87984375 24.07613281 11.4315625 24.53117187 12 25 C12 25.66 12 26.32 12 27 C8.86967299 26.4149477 7.13162507 25.53832576 4.80078125 23.3828125 C4.23166016 22.85816406 3.66253906 22.33351562 3.07617188 21.79296875 C2.2031543 20.96732422 2.2031543 20.96732422 1.3125 20.125 C0.71888672 19.58230469 0.12527344 19.03960937 -0.48632812 18.48046875 C-4.86917402 14.39247794 -4.86917402 14.39247794 -6 11 C-4.78515625 8.30078125 -4.78515625 8.30078125 -3.0625 5.3125 C-2.49660156 4.31863281 -1.93070313 3.32476562 -1.34765625 2.30078125 C-0.90292969 1.54152344 -0.45820313 0.78226563 0 0 Z " fill="#1E1D1F" transform="translate(196,161)"/>
<path d="M0 0 C7.59546638 0.9494333 14.38816938 6.73805292 19.1875 12.5 C19.785625 13.325 20.38375 14.15 21 15 C18.10400552 13.77477157 16.4753009 12.5095204 14.125 10.3125 C11.19407417 7.62894416 11.19407417 7.62894416 7.625 8.1875 C6.75875 8.455625 5.8925 8.72375 5 9 C5 8.34 5 7.68 5 7 C4.34 7 3.68 7 3 7 C2.67 7.66 2.34 8.32 2 9 C2.33 7.68 2.66 6.36 3 5 C3.66 5 4.32 5 5 5 C5 4.34 5 3.68 5 3 C2.525 2.01 2.525 2.01 0 1 C0 0.67 0 0.34 0 0 Z " fill="#383839" transform="translate(180,61)"/>
<path d="M0 0 C3.125 0.375 3.125 0.375 6 1 C6 1.66 6 2.32 6 3 C6.66 3.33 7.32 3.66 8 4 C8.33 4.99 8.66 5.98 9 7 C7 10 7 10 4.125 10.9375 C1 11 1 11 -1.4375 9.375 C-3 7 -3 7 -2.875 4.375 C-2 2 -2 2 0 0 Z M1 2 C0.34 2.66 -0.32 3.32 -1 4 C-0.67958603 6.60280568 -0.67958603 6.60280568 0 9 C1.32 8.67 2.64 8.34 4 8 C4.33 6.68 4.66 5.36 5 4 C3.68 3.34 2.36 2.68 1 2 Z " fill="#323133" transform="translate(139,96)"/>
<path d="M0 0 C0.99 0.33 1.98 0.66 3 1 C5.47339212 8.42017635 4.25762843 16.6627076 2 24 C1.67 24 1.34 24 1 24 C0.67 16.08 0.34 8.16 0 0 Z " fill="#2F2E30" transform="translate(190,124)"/>
<path d="M0 0 C0.66 0 1.32 0 2 0 C4.76747801 6.3997929 5.14103093 13.27428597 3.1015625 19.93359375 C2.14162284 22.33344289 1.129399 24.67565651 0 27 C-0.5625 25.0625 -0.5625 25.0625 -1 23 C-0.67 22.67 -0.34 22.34 0 22 C1.00040288 14.53032513 1.13514087 7.44147905 0 0 Z " fill="#303030" transform="translate(76,51)"/>
<path d="M0 0 C2.64 0.33 5.28 0.66 8 1 C8.125 4.375 8.125 4.375 8 8 C7.34 8.66 6.68 9.32 6 10 C2.375 9.625 2.375 9.625 -1 9 C-1.33 7.68 -1.66 6.36 -2 5 C-1.01 5.495 -1.01 5.495 0 6 C0 6.66 0 7.32 0 8 C1.32 7.67 2.64 7.34 4 7 C4 5.68 4 4.36 4 3 C2.02 3.33 0.04 3.66 -2 4 C-1.34 2.68 -0.68 1.36 0 0 Z " fill="#302F31" transform="translate(110,146)"/>
<path d="M0 0 C3.62687258 1.42621205 4.76927519 2.90001269 6.4375 6.375 C9.02042559 11.3183222 11.59887477 14.19962492 17 16 C17 16.66 17 17.32 17 18 C12.53789382 17.72956932 9.93267229 15.84782962 6.71484375 12.9609375 C4.00565666 9.86296046 0 4.29793335 0 0 Z " fill="#212121" transform="translate(19,215)"/>
<path d="M0 0 C3.44165321 0.35299007 5.06872538 1.04581692 8 3 C7.67 4.98 7.34 6.96 7 9 C5.02 9.66 3.04 10.32 1 11 C-1.0625 8.75 -1.0625 8.75 -3 6 C-2.82560493 2.94808622 -2.18741485 2.18741485 0 0 Z M1 2 C0.34 2.66 -0.32 3.32 -1 4 C-0.6814823 6.10820797 -0.6814823 6.10820797 0 8 C1.98 8.495 1.98 8.495 4 9 C4.33 7.35 4.66 5.7 5 4 C3.68 3.34 2.36 2.68 1 2 Z " fill="#29292B" transform="translate(139,162)"/>
<path d="M0 0 C5.88400418 0.77906676 8.9525554 3.88246978 13 8 C15.64427575 11.47061193 16.37289506 13.64955762 16 18 C15.34 18.33 14.68 18.66 14 19 C13.62875 17.824375 13.2575 16.64875 12.875 15.4375 C11.13172733 10.82969477 8.73708144 7.23521918 5 4 C1.81117748 2.51527389 1.81117748 2.51527389 -1 2 C-0.67 1.34 -0.34 0.68 0 0 Z " fill="#252527" transform="translate(146,114)"/>
<path d="M0 0 C2 1 2 1 2.875 2.8125 C3 5 3 5 1.375 7.3125 C-1 9 -1 9 -3.5625 9 C-6.41935667 7.82795624 -7.40633553 6.6001894 -9 4 C-8.1875 2.0625 -8.1875 2.0625 -7 0 C-3.83299069 -1.05566977 -3.03571759 -0.97926374 0 0 Z M-5 1 C-5.33 2.65 -5.66 4.3 -6 6 C-4.515 6.99 -4.515 6.99 -3 8 C-1.35444301 6.77190909 -1.35444301 6.77190909 0 5 C-0.22757731 2.83700789 -0.22757731 2.83700789 -1 1 C-2.32 1 -3.64 1 -5 1 Z " fill="#28282A" transform="translate(173,147)"/>
<path d="M0 0 C0.66 0 1.32 0 2 0 C2.10477512 5.78591511 1.99250545 11.29309366 1 17 C0.01 17 -0.98 17 -2 17 C-2.22084624 10.90218999 -2.01167675 5.78357065 0 0 Z " fill="#373537" transform="translate(95,122)"/>
<path d="M0 0 C2.31 0.33 4.62 0.66 7 1 C7.625 3.8125 7.625 3.8125 8 7 C6 10 6 10 4.125 10.9375 C2 11 2 11 -0.25 9.0625 C-0.8275 8.381875 -1.405 7.70125 -2 7 C-1.34 6.67 -0.68 6.34 0 6 C0 6.66 0 7.32 0 8 C1.32 7.67 2.64 7.34 4 7 C4 5.68 4 4.36 4 3 C2.02 3.33 0.04 3.66 -2 4 C-1.34 2.68 -0.68 1.36 0 0 Z " fill="#302F31" transform="translate(110,113)"/>
<path d="M0 0 C0.928125 0.20625 1.85625 0.4125 2.8125 0.625 C3.5 3.4375 3.5 3.4375 3.8125 6.625 C2.375 8.5 2.375 8.5 0.8125 9.625 C-0.61838528 6.76322943 0.21258303 4.69124227 0.8125 1.625 C-0.5075 1.955 -1.8275 2.285 -3.1875 2.625 C-3.1875 3.945 -3.1875 5.265 -3.1875 6.625 C-2.5275 6.955 -1.8675 7.285 -1.1875 7.625 C-1.1875 8.285 -1.1875 8.945 -1.1875 9.625 C-2.5075 9.295 -3.8275 8.965 -5.1875 8.625 C-5.5175 6.315 -5.8475 4.005 -6.1875 1.625 C-3.1875 -0.375 -3.1875 -0.375 0 0 Z " fill="#272728" transform="translate(171.1875,113.375)"/>
<path d="M0 0 C0.33 0.99 0.66 1.98 1 3 C-7.3562349 9.45297098 -16.08661007 14.97007911 -27 14 C-27 13.67 -27 13.34 -27 13 C-26.32195312 12.84144531 -25.64390625 12.68289062 -24.9453125 12.51953125 C-15.39802414 10.12609746 -7.28534964 6.71019046 0 0 Z " fill="#1E1C1E" transform="translate(175,171)"/>
<path d="M0 0 C0.33 0.99 0.66 1.98 1 3 C-0.175625 4.2065625 -0.175625 4.2065625 -1.375 5.4375 C-4.91546847 9.28032252 -4.64442734 13.46944364 -4.76171875 18.48828125 C-4.84035156 19.31714844 -4.91898437 20.14601563 -5 21 C-5.66 21.33 -6.32 21.66 -7 22 C-7.13536629 19.58145554 -7.23420279 17.17050217 -7.3125 14.75 C-7.35439453 14.06808594 -7.39628906 13.38617188 -7.43945312 12.68359375 C-7.48828125 10.671875 -7.48828125 10.671875 -7 7 C-4.60546875 4.703125 -4.60546875 4.703125 -2 3 C-1.34 2.01 -0.68 1.02 0 0 Z " fill="#29292B" transform="translate(76,83)"/>
<path d="M0 0 C2.6875 1.4375 2.6875 1.4375 5 3 C4.8125 5.375 4.8125 5.375 4 8 C1.4375 9.3125 1.4375 9.3125 -1 10 C-1.33 9.01 -1.66 8.02 -2 7 C-2.66 7 -3.32 7 -4 7 C-3.67 5.02 -3.34 3.04 -3 1 C-2.01 0.67 -1.02 0.34 0 0 Z M-1 3 C-0.67 4.65 -0.34 6.3 0 8 C0.99 7.01 1.98 6.02 3 5 C2.67 4.34 2.34 3.68 2 3 C1.01 3 0.02 3 -1 3 Z " fill="#2C2C2E" transform="translate(134,67)"/>
<path d="M0 0 C0.66 0.33 1.32 0.66 2 1 C-4 7 -4 7 -6.5625 7.0625 C-7.7690625 7.0315625 -7.7690625 7.0315625 -9 7 C-9.042721 5.33388095 -9.04063832 3.66617115 -9 2 C-8.67 1.67 -8.34 1.34 -8 1 C-5.66666667 1 -3.33333333 1 -1 1 C-0.67 0.67 -0.34 0.34 0 0 Z " fill="#3D3D3D" transform="translate(70,226)"/>
<path d="M0 0 C0.99 0.33 1.98 0.66 3 1 C3 1.66 3 2.32 3 3 C3.66 3 4.32 3 5 3 C4.75 5.375 4.75 5.375 4 8 C1.9375 9.3125 1.9375 9.3125 0 10 C-2.52588702 7.63707344 -3.88820837 6.33537489 -5 3 C-2.6875 1.4375 -2.6875 1.4375 0 0 Z M-1 3 C-1.33 4.32 -1.66 5.64 -2 7 C-0.68 7 0.64 7 2 7 C2 5.68 2 4.36 2 3 C1.01 3 0.02 3 -1 3 Z " fill="#2B2B2D" transform="translate(108,66)"/>
<path d="M0 0 C2 0.0625 2 0.0625 4 1 C5.25 3.5625 5.25 3.5625 6 6 C4.35 7.32 2.7 8.64 1 10 C0.34 9.67 -0.32 9.34 -1 9 C-1 8.34 -1 7.68 -1 7 C-1.66 7 -2.32 7 -3 7 C-2.25 2.25 -2.25 2.25 0 0 Z M1 2 C0.34 3.32 -0.32 4.64 -1 6 C0.32 6.33 1.64 6.66 3 7 C2.67 5.35 2.34 3.7 2 2 C1.67 2 1.34 2 1 2 Z " fill="#313032" transform="translate(103,79)"/>
<path d="M0 0 C6.59904729 1.52785824 12.87389209 3.07617577 19 6 C19 6.33 19 6.66 19 7 C11.63904818 6.68676801 5.69116911 5.06085395 -1 2 C-0.67 1.34 -0.34 0.68 0 0 Z " fill="#303031" transform="translate(108,210)"/>
<path d="M0 0 C0.99 0.33 1.98 0.66 3 1 C1.4559934 5.14292455 -1.56799115 7.35567676 -4.9375 10 C-8.38881384 12.72798459 -11.53992873 15.29703558 -14 19 C-14 15.25983417 -13.0658409 14.54723807 -10.625 11.8125 C-9.68527344 10.73935547 -9.68527344 10.73935547 -8.7265625 9.64453125 C-7 8 -7 8 -5 8 C-5 7.34 -5 6.68 -5 6 C-1.53846154 3 -1.53846154 3 1 3 C0.67 2.01 0.34 1.02 0 0 Z " fill="#28272A" transform="translate(201,77)"/>
<path d="M0 0 C4.06225548 0.57823096 6.84762346 1.89117737 10.3125 4.0625 C11.19550781 4.61035156 12.07851563 5.15820312 12.98828125 5.72265625 C13.65214844 6.14417969 14.31601562 6.56570312 15 7 C14.67 7.99 14.34 8.98 14 10 C13.27554688 9.47148437 12.55109375 8.94296875 11.8046875 8.3984375 C10.83789062 7.73070312 9.87109375 7.06296875 8.875 6.375 C7.92367187 5.70210937 6.97234375 5.02921875 5.9921875 4.3359375 C3.00541647 2.6404017 3.00541647 2.6404017 -0.3671875 3.7890625 C-1.23601563 4.18867188 -2.10484375 4.58828125 -3 5 C-2.67 4.01 -2.34 3.02 -2 2 C-1.34 2 -0.68 2 0 2 C0 1.34 0 0.68 0 0 Z " fill="#2A2A2A" transform="translate(47,201)"/>
<path d="M0 0 C0.66 0.33 1.32 0.66 2 1 C1.25 5.75 1.25 5.75 -1 8 C-1.99 8 -2.98 8 -4 8 C-4 7.34 -4 6.68 -4 6 C-4.99 6 -5.98 6 -7 6 C-6.625 3.0625 -6.625 3.0625 -6 0 C-3.4832097 -1.25839515 -2.62168527 -0.81927665 0 0 Z M-4 1 C-4.33 2.32 -4.66 3.64 -5 5 C-3.68 5 -2.36 5 -1 5 C-1.33 3.68 -1.66 2.36 -2 1 C-2.66 1 -3.32 1 -4 1 Z " fill="#2A2A2C" transform="translate(93,168)"/>
<path d="M0 0 C0.66 0 1.32 0 2 0 C2.0544207 2.68777802 2.09387266 5.37443212 2.125 8.0625 C2.14175781 8.81466797 2.15851563 9.56683594 2.17578125 10.34179688 C2.21865121 15.29327709 1.58399375 19.30414451 0 24 C-0.33 24 -0.66 24 -1 24 C-1.02901394 20.5625177 -1.04680335 17.12506688 -1.0625 13.6875 C-1.07087891 12.71103516 -1.07925781 11.73457031 -1.08789062 10.72851562 C-1.09111328 9.79072266 -1.09433594 8.85292969 -1.09765625 7.88671875 C-1.10551147 6.59060669 -1.10551147 6.59060669 -1.11352539 5.26831055 C-1 3 -1 3 0 0 Z " fill="#212122" transform="translate(69,135)"/>
<path d="M0 0 C4.70588235 0.70588235 4.70588235 0.70588235 6 2 C6.04063832 3.66617115 6.042721 5.33388095 6 7 C4.35 7.66 2.7 8.32 1 9 C-0.5625 7.8125 -0.5625 7.8125 -2 6 C-1.57894737 1.57894737 -1.57894737 1.57894737 0 0 Z M0 2 C0.33 3.65 0.66 5.3 1 7 C1.66 6.67 2.32 6.34 3 6 C3 4.68 3 3.36 3 2 C2.01 2 1.02 2 0 2 Z " fill="#27272B" transform="translate(178,70)"/>
<path d="M0 0 C1 2 1 2 0.14453125 4.609375 C-2.19435712 10.12393879 -4.50806897 15.13623892 -8 20 C-8.33 20.99 -8.66 21.98 -9 23 C-9.66 22.67 -10.32 22.34 -11 22 C-9.35760905 18.51919797 -7.71051455 15.04064258 -6.0625 11.5625 C-5.59392578 10.56927734 -5.12535156 9.57605469 -4.64257812 8.55273438 C-3.9706543 7.13637695 -3.9706543 7.13637695 -3.28515625 5.69140625 C-2.87144775 4.81685791 -2.45773926 3.94230957 -2.03149414 3.04125977 C-1 1 -1 1 0 0 Z " fill="#262426" transform="translate(197,150)"/>
<path d="M0 0 C4.35393258 3.01310213 6.61821358 6.30980909 8.875 11 C9.1946875 11.61617187 9.514375 12.23234375 9.84375 12.8671875 C11.16894256 15.55214287 12.07258452 17.41932381 11.6953125 20.4375 C11.46585938 20.953125 11.23640625 21.46875 11 22 C10.78085938 21.46632813 10.56171875 20.93265625 10.3359375 20.3828125 C8.05208195 15.01668034 5.36702692 10.10437204 2.26953125 5.1640625 C1 3 1 3 0 0 Z " fill="#27272A" transform="translate(175,102)"/>
<path d="M0 0 C0 0.66 0 1.32 0 2 C0.66 2 1.32 2 2 2 C2.625 4.375 2.625 4.375 3 7 C2.34 7.66 1.68 8.32 1 9 C-2.29714793 8.67028521 -3.6226839 8.3773161 -6 6 C-5.8125 4 -5.8125 4 -5 2 C-2 0 -2 0 0 0 Z M-3 3 C-3 4.32 -3 5.64 -3 7 C-2.01 7 -1.02 7 0 7 C0 5.68 0 4.36 0 3 C-0.99 3 -1.98 3 -3 3 Z " fill="#2B2B2E" transform="translate(146,58)"/>
<path d="M0 0 C1.34384766 0.07250977 1.34384766 0.07250977 2.71484375 0.14648438 C3.65199219 0.20255859 4.58914062 0.25863281 5.5546875 0.31640625 C6.97201172 0.3947168 6.97201172 0.3947168 8.41796875 0.47460938 C10.7555294 0.60447386 13.09268295 0.73944495 15.4296875 0.87890625 C11.69300863 3.3700255 8.75097774 3.17504102 4.4296875 3.12890625 C3.34300781 3.14050781 3.34300781 3.14050781 2.234375 3.15234375 C-1.56419743 3.13832688 -3.33868334 3.03332569 -6.5703125 0.87890625 C-4.11781157 -0.34734422 -2.72720815 -0.1553473 0 0 Z " fill="#2E2E2F" transform="translate(136.5703125,184.12109375)"/>
<path d="M0 0 C2.625 0.375 2.625 0.375 5 1 C5.6875 3.3125 5.6875 3.3125 6 6 C4.5625 7.8125 4.5625 7.8125 3 9 C0.525 8.01 0.525 8.01 -2 7 C-2.125 4.625 -2.125 4.625 -2 2 C-1.34 1.34 -0.68 0.68 0 0 Z M0 2 C0.33 3.65 0.66 5.3 1 7 C1.33 6.34 1.66 5.68 2 5 C2.66 4.67 3.32 4.34 4 4 C3.67 3.34 3.34 2.68 3 2 C2.01 2 1.02 2 0 2 Z " fill="#2D2C2E" transform="translate(165,73)"/>
<path d="M0 0 C0.99 0.66 1.98 1.32 3 2 C2.63258872 8.12352138 1.21348564 10.78651436 -3 15 C-3.66 15 -4.32 15 -5 15 C-4.71125 14.443125 -4.4225 13.88625 -4.125 13.3125 C-1.97068538 8.88418662 -0.68328981 4.89691031 0 0 Z " fill="#313131" transform="translate(160,134)"/>
<path d="M0 0 C0.66 0.99 1.32 1.98 2 3 C1.01 4.32 0.02 5.64 -1 7 C-5.875 6.125 -5.875 6.125 -7 5 C-7.04063832 3.33382885 -7.042721 1.66611905 -7 0 C-4.27584084 -1.36207958 -2.87220643 -0.86166193 0 0 Z M-5 1 C-5 2.32 -5 3.64 -5 5 C-3.68 4.67 -2.36 4.34 -1 4 C-1.33 3.01 -1.66 2.02 -2 1 C-2.99 1 -3.98 1 -5 1 Z " fill="#2D2D2F" transform="translate(87,106)"/>
<path d="M0 0 C2.51033417 1.1336993 2.96441202 2.36118938 3.9375 4.875 C2.75 6.4375 2.75 6.4375 0.9375 7.875 C-1.75 7.5625 -1.75 7.5625 -4.0625 6.875 C-4.3925 5.225 -4.7225 3.575 -5.0625 1.875 C-2.0625 -0.125 -2.0625 -0.125 0 0 Z M-2.0625 1.875 C-2.3925 3.195 -2.7225 4.515 -3.0625 5.875 C-1.7425 5.875 -0.4225 5.875 0.9375 5.875 C0.6075 4.555 0.2775 3.235 -0.0625 1.875 C-0.7225 1.875 -1.3825 1.875 -2.0625 1.875 Z " fill="#28282A" transform="translate(179.0625,181.125)"/>
<path d="M0 0 C1.65 0 3.3 0 5 0 C5.66 1.65 6.32 3.3 7 5 C6.34 5 5.68 5 5 5 C4.67 5.99 4.34 6.98 4 8 C1.03 7.505 1.03 7.505 -2 7 C-2 6.01 -2 5.02 -2 4 C-1.34 4 -0.68 4 0 4 C0 4.66 0 5.32 0 6 C0.99 6 1.98 6 3 6 C3 5.01 3 4.02 3 3 C1.68 3 0.36 3 -1 3 C-0.67 2.01 -0.34 1.02 0 0 Z " fill="#2A2A2C" transform="translate(77,137)"/>
<path d="M0 0 C2.97 0.495 2.97 0.495 6 1 C6.125 3.375 6.125 3.375 6 6 C5.34 6.66 4.68 7.32 4 8 C1.5 7.8125 1.5 7.8125 -1 7 C-1.66 6.01 -2.32 5.02 -3 4 C-2.01 2.68 -1.02 1.36 0 0 Z M1 2 C0.67 3.32 0.34 4.64 0 6 C1.32 6 2.64 6 4 6 C4 4.68 4 3.36 4 2 C3.01 2 2.02 2 1 2 Z " fill="#2B2B2D" transform="translate(172,194)"/>
<path d="M0 0 C1.65 0.33 3.3 0.66 5 1 C5.33 2.65 5.66 4.3 6 6 C3 8 3 8 0.9375 7.8125 C-1 7 -1 7 -3 4 C-2.01 2.68 -1.02 1.36 0 0 Z M1 1 C0.01 2.485 0.01 2.485 -1 4 C-0.67 4.66 -0.34 5.32 0 6 C0.99 6 1.98 6 3 6 C2.67 4.35 2.34 2.7 2 1 C1.67 1 1.34 1 1 1 Z " fill="#262628" transform="translate(146,193)"/>
<path d="M0 0 C1.08861328 0.59941406 1.08861328 0.59941406 2.19921875 1.2109375 C2.19921875 1.5409375 2.19921875 1.8709375 2.19921875 2.2109375 C1.16796875 2.4378125 0.13671875 2.6646875 -0.92578125 2.8984375 C-5.14486383 4.07565606 -7.61614909 6.25932721 -10.80078125 9.2109375 C-11.13078125 8.2209375 -11.46078125 7.2309375 -11.80078125 6.2109375 C-10.42390422 4.98104735 -9.02342292 3.77754172 -7.61328125 2.5859375 C-6.83597656 1.91304688 -6.05867187 1.24015625 -5.2578125 0.546875 C-2.80078125 -0.7890625 -2.80078125 -0.7890625 0 0 Z " fill="#282728" transform="translate(213.80078125,77.7890625)"/>
<path d="M0 0 C1.98 0.99 3.96 1.98 6 3 C5.42655063 5.86724686 5.1385485 6.8614515 3 9 C1 8.875 1 8.875 -1 8 C-2.25 5.9375 -2.25 5.9375 -3 4 C-2.01 2.68 -1.02 1.36 0 0 Z M1 2 C0.34 3.32 -0.32 4.64 -1 6 C0.32 6.33 1.64 6.66 3 7 C2.67 5.35 2.34 3.7 2 2 C1.67 2 1.34 2 1 2 Z " fill="#2A2A2C" transform="translate(114,187)"/>
<path d="M0 0 C2.1875 0.3125 2.1875 0.3125 4 1 C3.01 2.32 2.02 3.64 1 5 C1.66 5.66 2.32 6.32 3 7 C2.34 7.66 1.68 8.32 1 9 C0.83312552 11.58354218 0.83312552 11.58354218 1 14 C0.01 14.495 0.01 14.495 -1 15 C-2.28571429 7.57142857 -2.28571429 7.57142857 -1 4 C-1.66 3.67 -2.32 3.34 -3 3 C-1.75 1.4375 -1.75 1.4375 0 0 Z " fill="#3A3A3C" transform="translate(72,131)"/>
<path d="M0 0 C0 0.99 0 1.98 0 3 C-1.72807318 3.33895656 -3.45751974 3.67091525 -5.1875 4 C-6.63189453 4.2784375 -6.63189453 4.2784375 -8.10546875 4.5625 C-10.7934206 4.96877612 -13.28771019 5.07933572 -16 5 C-15.01 4.67 -14.02 4.34 -13 4 C-13 3.34 -13 2.68 -13 2 C-8.71 1.34 -4.42 0.68 0 0 Z " fill="#2F2F2F" transform="translate(134,50)"/>
<path d="M0 0 C6.33393082 -0.34548714 11.10261508 0.70657253 17 3 C13.22628488 4.3357457 10.14168653 3.72408671 6.25 3.0625 C4.49429688 2.77052734 4.49429688 2.77052734 2.703125 2.47265625 C1.81109375 2.31667969 0.9190625 2.16070312 0 2 C0 1.34 0 0.68 0 0 Z " fill="#2E2E33" transform="translate(148,51)"/>
<path d="M0 0 C2.4375 0.1875 2.4375 0.1875 5 1 C6.3125 3.0625 6.3125 3.0625 7 5 C5.35 6.32 3.7 7.64 2 9 C2 6 2 6 3 3 C2.01 2.67 1.02 2.34 0 2 C-0.33 3.32 -0.66 4.64 -1 6 C-1.042721 4.33388095 -1.04063832 2.66617115 -1 1 C-0.67 0.67 -0.34 0.34 0 0 Z " fill="#282829" transform="translate(136,202)"/>
<path d="M0 0 C0 1.98 0 3.96 0 6 C-1.65 6.33 -3.3 6.66 -5 7 C-7 4 -7 4 -7 0 C-4.3333581 -1.33332095 -2.83319697 -0.67102033 0 0 Z M-5 1 C-5 2.32 -5 3.64 -5 5 C-3.68 4.67 -2.36 4.34 -1 4 C-1.33 3.01 -1.66 2.02 -2 1 C-2.99 1 -3.98 1 -5 1 Z " fill="#28282A" transform="translate(84,93)"/>
<path d="M0 0 C0.99 0 1.98 0 3 0 C3 3.96 3 7.92 3 12 C2.34 12 1.68 12 1 12 C0.03929566 9.11788698 -0.10581883 7.30149956 -0.0625 4.3125 C-0.05347656 3.50425781 -0.04445312 2.69601563 -0.03515625 1.86328125 C-0.02355469 1.24839844 -0.01195312 0.63351563 0 0 Z " fill="#2D2A2C" transform="translate(202,127)"/>
<path d="M0 0 C1.65 0.33 3.3 0.66 5 1 C5.33 2.65 5.66 4.3 6 6 C4.35 6.66 2.7 7.32 1 8 C0.34 7.34 -0.32 6.68 -1 6 C0.32 6 1.64 6 3 6 C2.67 4.68 2.34 3.36 2 2 C0.02 2.99 0.02 2.99 -2 4 C-1.34 2.68 -0.68 1.36 0 0 Z " fill="#29292A" transform="translate(101,191)"/>
<path d="M0 0 C0.625 2.875 0.625 2.875 1 6 C0.34 6.66 -0.32 7.32 -1 8 C-3.125 7.625 -3.125 7.625 -5 7 C-4.01 6.67 -3.02 6.34 -2 6 C-2 4.35 -2 2.7 -2 1 C-2.99 1 -3.98 1 -5 1 C-5.33 1.66 -5.66 2.32 -6 3 C-6 2.01 -6 1.02 -6 0 C-3.50907189 -1.24546405 -2.58919267 -0.7767578 0 0 Z " fill="#2B2B2D" transform="translate(81,164)"/>
<path d="M0 0 C4.32046898 1.41680244 7.00461199 3.53763785 10.3125 6.625 C11.19550781 7.44226563 12.07851562 8.25953125 12.98828125 9.1015625 C13.65214844 9.72804688 14.31601563 10.35453125 15 11 C10.80802878 11 8.83707618 8.67382431 5.8125 6.0625 C5.25369141 5.59392578 4.69488281 5.12535156 4.11914062 4.64257812 C2.72161432 3.4566431 1.35766377 2.23136946 0 1 C0 0.67 0 0.34 0 0 Z " fill="#2A2A2B" transform="translate(186,64)"/>
<path d="M0 0 C0.33 0 0.66 0 1 0 C1 3.96 1 7.92 1 12 C0.01 12 -0.98 12 -2 12 C-2.05422947 10.5629191 -2.09289723 9.12524538 -2.125 7.6875 C-2.14820312 6.88699219 -2.17140625 6.08648437 -2.1953125 5.26171875 C-2 3 -2 3 0 0 Z " fill="#2E2E2E" transform="translate(20,198)"/>
<path d="M0 0 C3.21365891 1.10815825 3.9914224 1.98529554 5.75 5 C7 8 7 8 7 10 C5.1875 9.5 5.1875 9.5 3 8 C1.73847391 5.4136076 0.84356955 2.74799171 0 0 Z " fill="#2A2A2C" transform="translate(19,215)"/>
<path d="M0 0 C0.66 1.32 1.32 2.64 2 4 C0.74057614 5.19959375 -0.53295286 6.38439443 -1.8125 7.5625 C-2.87404297 8.55443359 -2.87404297 8.55443359 -3.95703125 9.56640625 C-4.63121094 10.03949219 -5.30539063 10.51257813 -6 11 C-6.99 10.67 -7.98 10.34 -9 10 C-3.25 5 -3.25 5 -1 5 C-0.67 3.35 -0.34 1.7 0 0 Z " fill="#2A2A2F" transform="translate(201,189)"/>
<path d="M0 0 C1.90318884 2.85478326 2.4619099 4.41941308 3.125 7.6875 C3.29257813 8.49574219 3.46015625 9.30398437 3.6328125 10.13671875 C3.75398437 10.75160156 3.87515625 11.36648437 4 12 C3.34 12 2.68 12 2 12 C1.47026689 10.37787941 0.95146893 8.75218416 0.4375 7.125 C0.14746094 6.22007813 -0.14257812 5.31515625 -0.44140625 4.3828125 C-1 2 -1 2 0 0 Z " fill="#252527" transform="translate(188,112)"/>
<path d="M0 0 C2 2 2 2 2.1953125 5.0390625 C2.17210938 6.22242188 2.14890625 7.40578125 2.125 8.625 C2.10695313 9.81351563 2.08890625 11.00203125 2.0703125 12.2265625 C2.04710938 13.14179688 2.02390625 14.05703125 2 15 C1.67 15 1.34 15 1 15 C0.93941406 14.40832031 0.87882812 13.81664062 0.81640625 13.20703125 C0.45123472 9.76318281 0.08191112 6.39317337 -0.625 3 C-0.74875 2.34 -0.8725 1.68 -1 1 C-0.67 0.67 -0.34 0.34 0 0 Z " fill="#363638" transform="translate(62,210)"/>
<path d="M0 0 C0.66 0.33 1.32 0.66 2 1 C-4 7 -4 7 -6.5625 7.0625 C-7.7690625 7.0315625 -7.7690625 7.0315625 -9 7 C-8.67 6.34 -8.34 5.68 -8 5 C-6.68 5 -5.36 5 -4 5 C-4 4.34 -4 3.68 -4 3 C-2 1.375 -2 1.375 0 0 Z " fill="#2C2C2C" transform="translate(70,226)"/>
<path d="M0 0 C0.99 0.33 1.98 0.66 3 1 C2.54857119 2.29409592 2.08858979 3.58521059 1.625 4.875 C1.36976563 5.59429687 1.11453125 6.31359375 0.8515625 7.0546875 C0 9 0 9 -2 11 C-2.33 8.69 -2.66 6.38 -3 4 C-2.01 4.495 -2.01 4.495 -1 5 C-0.34 4.67 0.32 4.34 1 4 C0.67 2.68 0.34 1.36 0 0 Z " fill="#3A3A3C" transform="translate(194,114)"/>
<path d="M0 0 C0.99 0.495 0.99 0.495 2 1 C2 1.66 2 2.32 2 3 C3.97536745 2.65213292 3.97536745 2.65213292 6 2 C6.33 1.34 6.66 0.68 7 0 C7.66 0.33 8.32 0.66 9 1 C8.67 2.32 8.34 3.64 8 5 C5.69 4.67 3.38 4.34 1 4 C0.67 2.68 0.34 1.36 0 0 Z " fill="#242325" transform="translate(108,151)"/>
<path d="M0 0 C0.66 0 1.32 0 2 0 C2.33 3.3 2.66 6.6 3 10 C1.68 9.67 0.36 9.34 -1 9 C-0.67 6.03 -0.34 3.06 0 0 Z " fill="#333132" transform="translate(120,131)"/>
<path d="M0 0 C0.66 0.33 1.32 0.66 2 1 C-0.51830747 4.12270126 -1.7261549 4.94523098 -5.75 5.75 C-7.35875 5.87375 -7.35875 5.87375 -9 6 C-7.60147088 3.20294175 -5.86348142 3.09085007 -3 2 C-2.01 1.34 -1.02 0.68 0 0 Z " fill="#282829" transform="translate(56,61)"/>
<path d="M0 0 C1.98 0 3.96 0 6 0 C6 0.99 6 1.98 6 3 C3.625 3.625 3.625 3.625 1 4 C0.34 3.34 -0.32 2.68 -1 2 C-0.67 1.34 -0.34 0.68 0 0 Z " fill="#3A3A3A" transform="translate(135,50)"/>
<path d="M0 0 C5.07865169 1.26966292 5.07865169 1.26966292 7 4 C6.67 5.32 6.34 6.64 6 8 C4.02 5.36 2.04 2.72 0 0 Z " fill="#1E1E22" transform="translate(102,162)"/>
<path d="M0 0 C0.66 0 1.32 0 2 0 C1.67 2.97 1.34 5.94 1 9 C0.01 8.67 -0.98 8.34 -2 8 C-1.34 5.36 -0.68 2.72 0 0 Z " fill="#292728" transform="translate(95,122)"/>
<path d="M0 0 C0.33 0.99 0.66 1.98 1 3 C-0.9375 5.6875 -0.9375 5.6875 -3 8 C-4.32 7.67 -5.64 7.34 -7 7 C-6.21625 6.401875 -5.4325 5.80375 -4.625 5.1875 C-1.85425677 3.08914751 -1.85425677 3.08914751 0 0 Z " fill="#222225" transform="translate(76,83)"/>
<path d="M0 0 C0.598125 0.226875 1.19625 0.45375 1.8125 0.6875 C1.19375 1.120625 0.575 1.55375 -0.0625 2 C-2.4072245 3.68490483 -2.4072245 3.68490483 -4.1875 6.6875 C-4.875 4.875 -4.875 4.875 -5.1875 2.6875 C-3.58493056 0.24147296 -2.95482043 -0.4221172 0 0 Z " fill="#303033" transform="translate(141.1875,162.3125)"/>
<path d="M0 0 C0.66 1.32 1.32 2.64 2 4 C1.01 5.485 1.01 5.485 0 7 C-1.32 6.67 -2.64 6.34 -4 6 C-3.34 6 -2.68 6 -2 6 C-1.34 4.02 -0.68 2.04 0 0 Z " fill="#2E2E30" transform="translate(174,148)"/>
<path d="M0 0 C0.33 0 0.66 0 1 0 C1 2.64 1 5.28 1 8 C0.01 8 -0.98 8 -2 8 C-1.125 2.25 -1.125 2.25 0 0 Z " fill="#2F2E2F" transform="translate(220,123)"/>
<path d="M0 0 C0 0.99 0 1.98 0 3 C0.3062434 4.33981486 0.63451555 5.67511887 1 7 C0.01 6.67 -0.98 6.34 -2 6 C-2 5.34 -2 4.68 -2 4 C-2.66 4 -3.32 4 -4 4 C-4 3.34 -4 2.68 -4 2 C-2.68 1.34 -1.36 0.68 0 0 Z " fill="#3A3A3D" transform="translate(187,91)"/>
<path d="M0 0 C1.32 0.33 2.64 0.66 4 1 C4.33 2.32 4.66 3.64 5 5 C3.02 5.99 3.02 5.99 1 7 C1.020625 6.21625 1.04125 5.4325 1.0625 4.625 C1.18684063 2.01885039 1.18684063 2.01885039 0 0 Z " fill="#29282A" transform="translate(104,80)"/>
<path d="M0 0 C0.99 0.33 1.98 0.66 3 1 C3.33 2.65 3.66 4.3 4 6 C2.68 6.33 1.36 6.66 0 7 C0.33 6.01 0.66 5.02 1 4 C0.61067144 1.85744207 0.61067144 1.85744207 0 0 Z " fill="#242225" transform="translate(167,73)"/>
<path d="M0 0 C0.99 0 1.98 0 3 0 C1.79618552 2.49361571 0.54571278 4.68143083 -1 7 C-1.66 7 -2.32 7 -3 7 C-2.690625 6.401875 -2.38125 5.80375 -2.0625 5.1875 C-0.89790296 2.91043228 -0.89790296 2.91043228 0 0 Z " fill="#222222" transform="translate(158,142)"/>
<path d="M0 0 C0.66 0 1.32 0 2 0 C2 0.66 2 1.32 2 2 C3.98 1.67 5.96 1.34 8 1 C8 1.99 8 2.98 8 4 C6.25 4.75 6.25 4.75 4 5 C1.75 3.125 1.75 3.125 0 1 C0 0.67 0 0.34 0 0 Z " fill="#292729" transform="translate(108,119)"/>
<path d="M0 0 C0.99 1.485 0.99 1.485 2 3 C2.53625 3.515625 3.0725 4.03125 3.625 4.5625 C5 6 5 6 5 8 C3.68 7.67 2.36 7.34 1 7 C0.67 4.69 0.34 2.38 0 0 Z " fill="#323233" transform="translate(165,115)"/>
<path d="M0 0 C0.66 0 1.32 0 2 0 C1.42415568 2.38564077 0.77772405 4.66682784 0 7 C-0.66 7 -1.32 7 -2 7 C-1.125 1.125 -1.125 1.125 0 0 Z " fill="#252425" transform="translate(98,114)"/>
<path d="M0 0 C0.99 0.33 1.98 0.66 3 1 C1.9024777 3.99324263 1.32317108 4.84610901 -1.625 6.25 C-2.40875 6.4975 -3.1925 6.745 -4 7 C-2.625 5 -2.625 5 -1 3 C-0.34 3 0.32 3 1 3 C0.67 2.01 0.34 1.02 0 0 Z " fill="#212022" transform="translate(201,77)"/>
<path d="M0 0 C0.66 0 1.32 0 2 0 C1.42655063 2.86724686 1.1385485 3.8614515 -1 6 C-1.99 5.67 -2.98 5.34 -4 5 C-2.71937515 3.2925002 -1.38232443 1.62626404 0 0 Z " fill="#262626" transform="translate(26,41)"/>
<path d="" fill="#000000" transform="translate(0,0)"/>
</svg>
