<?xml version="1.0" encoding="UTF-8"?>
<svg version="1.1" xmlns="http://www.w3.org/2000/svg" width="803" height="893">
<path d="M0 0 C1.9212822 -0.00151062 1.9212822 -0.00151062 3.88137817 -0.00305176 C24.44135483 0.00784969 44.65749864 0.69971505 65.0625 3.25 C66.85324951 3.4668042 66.85324951 3.4668042 68.68017578 3.68798828 C133.23052995 11.72230528 200.13351775 34.99476681 242.22851562 87.18774414 C268.92839847 121.68947078 280.54545404 163.07800564 280.32324219 206.33666992 C280.31248833 208.8151891 280.32323852 211.29298634 280.3359375 213.77148438 C280.34593495 224.40673363 279.56243626 234.72501249 278.0625 245.25 C277.81161621 247.03506958 277.81161621 247.03506958 277.55566406 248.85620117 C277.08322105 252.09617792 276.57947889 255.32936248 276.0625 258.5625 C275.8975 259.64466797 275.7325 260.72683594 275.5625 261.84179688 C275.3975 262.88013672 275.2325 263.91847656 275.0625 264.98828125 C274.918125 265.90649658 274.77375 266.82471191 274.625 267.77075195 C274.0625 270.25 274.0625 270.25 272.0625 274.25 C178.0125 274.25 83.9625 274.25 -12.9375 274.25 C-12.2775 268.64 -11.6175 263.03 -10.9375 257.25 C-10.51654332 243.77938633 -11.31168741 234.00126402 -18.625 222.625 C-26.74340611 214.2871775 -38.23011627 209.21823985 -49.82592773 209.00830078 C-64.21424011 208.95490021 -75.01024366 212.37717406 -85.6875 222.5 C-95.93924498 233.36540577 -101.80406174 247.48979087 -101.5246582 262.46582031 C-100.85429093 274.1236358 -95.34305565 282.49836116 -86.9375 290.25 C-58.65494486 314.25542015 -18.65907975 327.54420279 15.25 341.8125 C140.18707477 394.42821365 140.18707477 394.42821365 174.0625 439.25 C174.80886719 440.20390625 175.55523438 441.1578125 176.32421875 442.140625 C181.77430444 449.2100061 186.58535088 456.53047107 191.0625 464.25 C191.56330078 465.10585693 191.56330078 465.10585693 192.07421875 465.97900391 C196.34116381 473.3419364 199.88230954 480.84322773 202.875 488.8125 C203.2918103 489.90812256 203.2918103 489.90812256 203.71704102 491.02587891 C208.00668752 502.93561847 209.66000574 515.16526781 210.375 527.75 C210.41608887 528.44720154 210.45717773 529.14440308 210.49951172 529.86273193 C213.57616057 584.13191392 193.30199379 643.84396015 164.0625 689.25 C163.36906494 690.33450439 163.36906494 690.33450439 162.66162109 691.44091797 C142.96822093 722.06267576 118.9245198 751.81540872 90.0625 774.25 C89.00625805 775.12677847 87.95304623 776.00721578 86.90234375 776.890625 C24.90539896 828.57381262 -54.71260382 854.64129422 -133.9375 863.25 C-135.04125977 863.37004395 -136.14501953 863.49008789 -137.28222656 863.61376953 C-228.11916173 872.9307343 -335.95990728 861.21271033 -409.10107422 801.77978516 C-412.72363145 798.76211119 -416.20946772 795.61270098 -419.6484375 792.38671875 C-421.61167139 790.55414377 -423.61357436 788.82890807 -425.6875 787.125 C-437.3015262 777.21326606 -446.38019288 763.36055102 -453.9375 750.25 C-454.59492188 749.13496094 -455.25234375 748.01992188 -455.9296875 746.87109375 C-483.95318859 697.95090463 -481.39230077 637.82720439 -471.9375 584.25 C-378.8775 584.25 -285.8175 584.25 -189.9375 584.25 C-189.9375 592.25 -189.9375 592.25 -190.421875 595.15234375 C-193.08250858 611.13630155 -191.40815964 628.78828789 -181.9375 642.25 C-174.28612888 651.28786119 -163.07126246 654.73364157 -151.62890625 656.02734375 C-132.72515484 657.16757003 -113.94672983 652.71625162 -99.125 640.5 C-90.31839227 632.21235308 -84.78701046 619.97036006 -83.734375 607.92578125 C-83.49370619 595.79206201 -87.84148282 586.64335221 -95.9375 577.75 C-121.61916466 553.51050226 -161.96710777 541.13548962 -194.0859375 528.41796875 C-222.44215038 517.17676256 -250.46016938 505.3590227 -277.79589844 491.80322266 C-280.68158406 490.37652605 -283.57649716 488.9713884 -286.4765625 487.57421875 C-312.67499529 474.86824101 -338.37670095 459.13255373 -356.9375 436.25 C-357.5459375 435.52941406 -358.154375 434.80882812 -358.78125 434.06640625 C-384.28246196 403.2524418 -397.43101504 367.7260683 -397.25 327.8125 C-397.24817719 326.97684509 -397.24635437 326.14119019 -397.24447632 325.2802124 C-397.19487251 311.73659529 -396.43983112 298.58681454 -393.9375 285.25 C-393.76589355 284.30656738 -393.59428711 283.36313477 -393.41748047 282.39111328 C-383.85019224 230.74143661 -364.43494153 182.691908 -331.9375 141.25 C-331.20273437 140.30125 -330.46796875 139.3525 -329.7109375 138.375 C-322.96129757 129.88107109 -315.44942517 122.06573816 -307.9375 114.25 C-307.38594238 113.67507812 -306.83438477 113.10015625 -306.26611328 112.5078125 C-300.38941019 106.41426362 -294.33709134 100.71912019 -287.6953125 95.44921875 C-284.8429936 93.17463583 -282.08256241 90.81130007 -279.3125 88.4375 C-202.5297864 24.38559901 -97.95198575 0.05362867 0 0 Z " fill="#000000" transform="translate(507.9375,12.75)"/>
</svg>
